<svg width="527" height="147" viewBox="0 0 527 147" fill="none" xmlns="http://www.w3.org/2000/svg">
<path d="M269.572 91.7219L278 97.05V86.1688L269.572 91.7219Z" fill="#2F80ED"/>
<path d="M253 86.1688V97.05L261.428 91.7219L253 86.1688Z" fill="#2F80ED"/>
<path d="M276.438 83H254.563C253.783 83 253.164 83.5813 253.047 84.3297L265.5 92.5344L277.953 84.3297C277.836 83.5813 277.217 83 276.438 83Z" fill="#2F80ED"/>
<path d="M268.141 92.6656L265.93 94.1219C265.798 94.2078 265.65 94.25 265.5 94.25C265.35 94.25 265.202 94.2078 265.07 94.1219L262.859 92.6641L253.05 98.8688C253.17 99.6109 253.786 100.188 254.563 100.188H276.438C277.214 100.188 277.83 99.6109 277.95 98.8688L268.141 92.6656Z" fill="#2F80ED"/>
<path d="M275.739 115H255.261C254.013 115 253 115.972 253 117.171V136.829C253 138.028 254.013 139 255.261 139H275.738C276.988 139 278 138.028 278 136.829V117.171C278 115.972 276.988 115 275.739 115ZM260.736 135.723C260.736 136.072 260.441 136.355 260.078 136.355H257.277C256.913 136.355 256.618 136.072 256.618 135.723V124.449C256.618 124.1 256.913 123.818 257.277 123.818H260.078C260.441 123.818 260.736 124.1 260.736 124.449V135.723ZM258.677 122.755C257.207 122.755 256.016 121.611 256.016 120.2C256.016 118.789 257.207 117.645 258.677 117.645C260.147 117.645 261.339 118.789 261.339 120.2C261.339 121.611 260.147 122.755 258.677 122.755ZM275.376 135.774C275.376 136.095 275.105 136.355 274.771 136.355H271.765C271.431 136.355 271.16 136.095 271.16 135.774V130.486C271.16 129.697 271.401 127.029 269.013 127.029C267.16 127.029 266.784 128.855 266.709 129.675V135.774C266.709 136.095 266.438 136.355 266.103 136.355H263.196C262.862 136.355 262.591 136.095 262.591 135.774V124.399C262.591 124.078 262.862 123.818 263.196 123.818H266.103C266.438 123.818 266.709 124.078 266.709 124.399V125.382C267.396 124.392 268.416 123.628 270.59 123.628C275.404 123.628 275.376 127.946 275.376 130.318V135.774Z" fill="#0077B7"/>
<path d="M260.704 47.454V56.724C260.704 57.756 260.386 58.584 259.75 59.208C259.114 59.82 258.274 60.126 257.23 60.126C256.174 60.126 255.328 59.814 254.692 59.19C254.056 58.554 253.738 57.69 253.738 56.598H255.376C255.388 57.21 255.544 57.708 255.844 58.092C256.156 58.476 256.618 58.668 257.23 58.668C257.842 58.668 258.298 58.488 258.598 58.128C258.898 57.756 259.048 57.288 259.048 56.724V47.454H260.704ZM272.679 50.136V60H271.041V58.542C270.729 59.046 270.291 59.442 269.727 59.73C269.175 60.006 268.563 60.144 267.891 60.144C267.123 60.144 266.433 59.988 265.821 59.676C265.209 59.352 264.723 58.872 264.363 58.236C264.015 57.6 263.841 56.826 263.841 55.914V50.136H265.461V55.698C265.461 56.67 265.707 57.42 266.199 57.948C266.691 58.464 267.363 58.722 268.215 58.722C269.091 58.722 269.781 58.452 270.285 57.912C270.789 57.372 271.041 56.586 271.041 55.554V50.136H272.679ZM280.251 49.956C281.451 49.956 282.423 50.322 283.167 51.054C283.911 51.774 284.283 52.818 284.283 54.186V60H282.663V54.42C282.663 53.436 282.417 52.686 281.925 52.17C281.433 51.642 280.761 51.378 279.909 51.378C279.045 51.378 278.355 51.648 277.839 52.188C277.335 52.728 277.083 53.514 277.083 54.546V60H275.445V50.136H277.083V51.54C277.407 51.036 277.845 50.646 278.397 50.37C278.961 50.094 279.579 49.956 280.251 49.956ZM287.804 48.534C287.492 48.534 287.228 48.426 287.012 48.21C286.796 47.994 286.688 47.73 286.688 47.418C286.688 47.106 286.796 46.842 287.012 46.626C287.228 46.41 287.492 46.302 287.804 46.302C288.104 46.302 288.356 46.41 288.56 46.626C288.776 46.842 288.884 47.106 288.884 47.418C288.884 47.73 288.776 47.994 288.56 48.21C288.356 48.426 288.104 48.534 287.804 48.534ZM288.596 50.136V60H286.958V50.136H288.596ZM295.69 60.162C294.766 60.162 293.926 59.952 293.17 59.532C292.426 59.112 291.838 58.518 291.406 57.75C290.986 56.97 290.776 56.07 290.776 55.05C290.776 54.042 290.992 53.154 291.424 52.386C291.868 51.606 292.468 51.012 293.224 50.604C293.98 50.184 294.826 49.974 295.762 49.974C296.698 49.974 297.544 50.184 298.3 50.604C299.056 51.012 299.65 51.6 300.082 52.368C300.526 53.136 300.748 54.03 300.748 55.05C300.748 56.07 300.52 56.97 300.064 57.75C299.62 58.518 299.014 59.112 298.246 59.532C297.478 59.952 296.626 60.162 295.69 60.162ZM295.69 58.722C296.278 58.722 296.83 58.584 297.346 58.308C297.862 58.032 298.276 57.618 298.588 57.066C298.912 56.514 299.074 55.842 299.074 55.05C299.074 54.258 298.918 53.586 298.606 53.034C298.294 52.482 297.886 52.074 297.382 51.81C296.878 51.534 296.332 51.396 295.744 51.396C295.144 51.396 294.592 51.534 294.088 51.81C293.596 52.074 293.2 52.482 292.9 53.034C292.6 53.586 292.45 54.258 292.45 55.05C292.45 55.854 292.594 56.532 292.882 57.084C293.182 57.636 293.578 58.05 294.07 58.326C294.562 58.59 295.102 58.722 295.69 58.722ZM304.54 51.738C304.828 51.174 305.236 50.736 305.764 50.424C306.304 50.112 306.958 49.956 307.726 49.956V51.648H307.294C305.458 51.648 304.54 52.644 304.54 54.636V60H302.902V50.136H304.54V51.738ZM318.321 47.454C319.689 47.454 320.871 47.712 321.867 48.228C322.875 48.732 323.643 49.458 324.171 50.406C324.711 51.354 324.981 52.47 324.981 53.754C324.981 55.038 324.711 56.154 324.171 57.102C323.643 58.038 322.875 58.758 321.867 59.262C320.871 59.754 319.689 60 318.321 60H314.415V47.454H318.321ZM318.321 58.65C319.941 58.65 321.177 58.224 322.029 57.372C322.881 56.508 323.307 55.302 323.307 53.754C323.307 52.194 322.875 50.976 322.011 50.1C321.159 49.224 319.929 48.786 318.321 48.786H316.053V58.65H318.321ZM336.142 54.69C336.142 55.002 336.124 55.332 336.088 55.68H328.204C328.264 56.652 328.594 57.414 329.194 57.966C329.806 58.506 330.544 58.776 331.408 58.776C332.116 58.776 332.704 58.614 333.172 58.29C333.652 57.954 333.988 57.51 334.18 56.958H335.944C335.68 57.906 335.152 58.68 334.36 59.28C333.568 59.868 332.584 60.162 331.408 60.162C330.472 60.162 329.632 59.952 328.888 59.532C328.156 59.112 327.58 58.518 327.16 57.75C326.74 56.97 326.53 56.07 326.53 55.05C326.53 54.03 326.734 53.136 327.142 52.368C327.55 51.6 328.12 51.012 328.852 50.604C329.596 50.184 330.448 49.974 331.408 49.974C332.344 49.974 333.172 50.178 333.892 50.586C334.612 50.994 335.164 51.558 335.548 52.278C335.944 52.986 336.142 53.79 336.142 54.69ZM334.45 54.348C334.45 53.724 334.312 53.19 334.036 52.746C333.76 52.29 333.382 51.948 332.902 51.72C332.434 51.48 331.912 51.36 331.336 51.36C330.508 51.36 329.8 51.624 329.212 52.152C328.636 52.68 328.306 53.412 328.222 54.348H334.45ZM341.976 58.488L345.036 50.136H346.782L342.912 60H341.004L337.134 50.136H338.898L341.976 58.488ZM357.394 54.69C357.394 55.002 357.376 55.332 357.34 55.68H349.456C349.516 56.652 349.846 57.414 350.446 57.966C351.058 58.506 351.796 58.776 352.66 58.776C353.368 58.776 353.956 58.614 354.424 58.29C354.904 57.954 355.24 57.51 355.432 56.958H357.196C356.932 57.906 356.404 58.68 355.612 59.28C354.82 59.868 353.836 60.162 352.66 60.162C351.724 60.162 350.884 59.952 350.14 59.532C349.408 59.112 348.832 58.518 348.412 57.75C347.992 56.97 347.782 56.07 347.782 55.05C347.782 54.03 347.986 53.136 348.394 52.368C348.802 51.6 349.372 51.012 350.104 50.604C350.848 50.184 351.7 49.974 352.66 49.974C353.596 49.974 354.424 50.178 355.144 50.586C355.864 50.994 356.416 51.558 356.8 52.278C357.196 52.986 357.394 53.79 357.394 54.69ZM355.702 54.348C355.702 53.724 355.564 53.19 355.288 52.746C355.012 52.29 354.634 51.948 354.154 51.72C353.686 51.48 353.164 51.36 352.588 51.36C351.76 51.36 351.052 51.624 350.464 52.152C349.888 52.68 349.558 53.412 349.474 54.348H355.702ZM361.194 46.68V60H359.556V46.68H361.194ZM368.288 60.162C367.364 60.162 366.524 59.952 365.768 59.532C365.024 59.112 364.436 58.518 364.004 57.75C363.584 56.97 363.374 56.07 363.374 55.05C363.374 54.042 363.59 53.154 364.022 52.386C364.466 51.606 365.066 51.012 365.822 50.604C366.578 50.184 367.424 49.974 368.36 49.974C369.296 49.974 370.142 50.184 370.898 50.604C371.654 51.012 372.248 51.6 372.68 52.368C373.124 53.136 373.346 54.03 373.346 55.05C373.346 56.07 373.118 56.97 372.662 57.75C372.218 58.518 371.612 59.112 370.844 59.532C370.076 59.952 369.224 60.162 368.288 60.162ZM368.288 58.722C368.876 58.722 369.428 58.584 369.944 58.308C370.46 58.032 370.874 57.618 371.186 57.066C371.51 56.514 371.672 55.842 371.672 55.05C371.672 54.258 371.516 53.586 371.204 53.034C370.892 52.482 370.484 52.074 369.98 51.81C369.476 51.534 368.93 51.396 368.342 51.396C367.742 51.396 367.19 51.534 366.686 51.81C366.194 52.074 365.798 52.482 365.498 53.034C365.198 53.586 365.048 54.258 365.048 55.05C365.048 55.854 365.192 56.532 365.48 57.084C365.78 57.636 366.176 58.05 366.668 58.326C367.16 58.59 367.7 58.722 368.288 58.722ZM377.137 51.954C377.461 51.39 377.941 50.922 378.577 50.55C379.225 50.166 379.975 49.974 380.827 49.974C381.703 49.974 382.495 50.184 383.203 50.604C383.923 51.024 384.487 51.618 384.895 52.386C385.303 53.142 385.507 54.024 385.507 55.032C385.507 56.028 385.303 56.916 384.895 57.696C384.487 58.476 383.923 59.082 383.203 59.514C382.495 59.946 381.703 60.162 380.827 60.162C379.987 60.162 379.243 59.976 378.595 59.604C377.959 59.22 377.473 58.746 377.137 58.182V64.68H375.499V50.136H377.137V51.954ZM383.833 55.032C383.833 54.288 383.683 53.64 383.383 53.088C383.083 52.536 382.675 52.116 382.159 51.828C381.655 51.54 381.097 51.396 380.485 51.396C379.885 51.396 379.327 51.546 378.811 51.846C378.307 52.134 377.899 52.56 377.587 53.124C377.287 53.676 377.137 54.318 377.137 55.05C377.137 55.794 377.287 56.448 377.587 57.012C377.899 57.564 378.307 57.99 378.811 58.29C379.327 58.578 379.885 58.722 380.485 58.722C381.097 58.722 381.655 58.578 382.159 58.29C382.675 57.99 383.083 57.564 383.383 57.012C383.683 56.448 383.833 55.788 383.833 55.032ZM396.663 54.69C396.663 55.002 396.645 55.332 396.609 55.68H388.725C388.785 56.652 389.115 57.414 389.715 57.966C390.327 58.506 391.065 58.776 391.929 58.776C392.637 58.776 393.225 58.614 393.693 58.29C394.173 57.954 394.509 57.51 394.701 56.958H396.465C396.201 57.906 395.673 58.68 394.881 59.28C394.089 59.868 393.105 60.162 391.929 60.162C390.993 60.162 390.153 59.952 389.409 59.532C388.677 59.112 388.101 58.518 387.681 57.75C387.261 56.97 387.051 56.07 387.051 55.05C387.051 54.03 387.255 53.136 387.663 52.368C388.071 51.6 388.641 51.012 389.373 50.604C390.117 50.184 390.969 49.974 391.929 49.974C392.865 49.974 393.693 50.178 394.413 50.586C395.133 50.994 395.685 51.558 396.069 52.278C396.465 52.986 396.663 53.79 396.663 54.69ZM394.971 54.348C394.971 53.724 394.833 53.19 394.557 52.746C394.281 52.29 393.903 51.948 393.423 51.72C392.955 51.48 392.433 51.36 391.857 51.36C391.029 51.36 390.321 51.624 389.733 52.152C389.157 52.68 388.827 53.412 388.743 54.348H394.971ZM400.463 51.738C400.751 51.174 401.159 50.736 401.687 50.424C402.227 50.112 402.881 49.956 403.649 49.956V51.648H403.217C401.381 51.648 400.463 52.644 400.463 54.636V60H398.825V50.136H400.463V51.738Z" fill="#2F80ED"/>
<path d="M287.994 88.636H289.632L289.786 89.826H289.884C290.043 89.406 290.248 89.0747 290.5 88.832C290.752 88.5893 291.083 88.468 291.494 88.468C291.765 88.468 292.007 88.51 292.222 88.594V90.386H291.69C291.065 90.386 290.612 90.5587 290.332 90.904C290.052 91.24 289.912 91.7533 289.912 92.444V96H287.994V88.636ZM295.129 96.168C294.56 96.168 294.037 96.0187 293.561 95.72C293.085 95.4213 292.847 94.88 292.847 94.096C292.847 93.1533 293.235 92.486 294.009 92.094C294.784 91.6927 295.881 91.492 297.299 91.492V90.974C297.299 90.6473 297.225 90.3953 297.075 90.218C296.935 90.0407 296.665 89.952 296.263 89.952C295.834 89.952 295.526 90.0173 295.339 90.148C295.162 90.2787 295.073 90.4327 295.073 90.61V90.82H293.225C293.216 90.764 293.211 90.6613 293.211 90.512C293.211 89.896 293.482 89.4013 294.023 89.028C294.574 88.6547 295.302 88.468 296.207 88.468C297.215 88.468 297.967 88.6733 298.461 89.084C298.965 89.4947 299.217 90.0873 299.217 90.862V94.11C299.217 94.278 299.264 94.404 299.357 94.488C299.451 94.5627 299.567 94.6 299.707 94.6H300.099V95.944C299.801 96.0933 299.432 96.168 298.993 96.168C298.611 96.168 298.289 96.084 298.027 95.916C297.775 95.748 297.603 95.51 297.509 95.202H297.425C297.155 95.5193 296.842 95.762 296.487 95.93C296.142 96.0887 295.689 96.168 295.129 96.168ZM295.731 94.656C296.273 94.656 296.669 94.5067 296.921 94.208C297.173 93.9 297.299 93.494 297.299 92.99V92.766C295.629 92.766 294.793 93.1393 294.793 93.886C294.793 94.1193 294.868 94.306 295.017 94.446C295.176 94.586 295.414 94.656 295.731 94.656ZM301.397 90.204H300.347V88.636H301.397V87.796C301.397 87.2173 301.551 86.7367 301.859 86.354C302.167 85.962 302.675 85.766 303.385 85.766C303.581 85.766 303.795 85.7893 304.029 85.836C304.262 85.8827 304.458 85.934 304.617 85.99V87.334H303.917C303.515 87.334 303.315 87.5347 303.315 87.936V88.636H304.617V90.204H303.315V96H301.397V90.204ZM307.571 96.168C307.001 96.168 306.479 96.0187 306.003 95.72C305.527 95.4213 305.289 94.88 305.289 94.096C305.289 93.1533 305.676 92.486 306.451 92.094C307.225 91.6927 308.322 91.492 309.741 91.492V90.974C309.741 90.6473 309.666 90.3953 309.517 90.218C309.377 90.0407 309.106 89.952 308.705 89.952C308.275 89.952 307.967 90.0173 307.781 90.148C307.603 90.2787 307.515 90.4327 307.515 90.61V90.82H305.667C305.657 90.764 305.653 90.6613 305.653 90.512C305.653 89.896 305.923 89.4013 306.465 89.028C307.015 88.6547 307.743 88.468 308.649 88.468C309.657 88.468 310.408 88.6733 310.903 89.084C311.407 89.4947 311.659 90.0873 311.659 90.862V94.11C311.659 94.278 311.705 94.404 311.799 94.488C311.892 94.5627 312.009 94.6 312.149 94.6H312.541V95.944C312.242 96.0933 311.873 96.168 311.435 96.168C311.052 96.168 310.73 96.084 310.469 95.916C310.217 95.748 310.044 95.51 309.951 95.202H309.867C309.596 95.5193 309.283 95.762 308.929 95.93C308.583 96.0887 308.131 96.168 307.571 96.168ZM308.173 94.656C308.714 94.656 309.111 94.5067 309.363 94.208C309.615 93.9 309.741 93.494 309.741 92.99V92.766C308.07 92.766 307.235 93.1393 307.235 93.886C307.235 94.1193 307.309 94.306 307.459 94.446C307.617 94.586 307.855 94.656 308.173 94.656ZM316.694 96.168C315.509 96.168 314.622 95.8553 314.034 95.23C313.455 94.6047 313.166 93.634 313.166 92.318C313.166 91.002 313.455 90.0313 314.034 89.406C314.622 88.7807 315.509 88.468 316.694 88.468C317.786 88.468 318.603 88.7853 319.144 89.42C319.685 90.0453 319.956 91.0113 319.956 92.318V92.766H315.112C315.131 93.4193 315.261 93.9047 315.504 94.222C315.747 94.53 316.153 94.684 316.722 94.684C317.123 94.684 317.445 94.572 317.688 94.348C317.94 94.124 318.066 93.8067 318.066 93.396H319.956C319.956 94.32 319.657 95.0153 319.06 95.482C318.463 95.9393 317.674 96.168 316.694 96.168ZM317.968 91.492C317.968 90.4747 317.543 89.966 316.694 89.966C316.209 89.966 315.84 90.092 315.588 90.344C315.345 90.596 315.196 90.9787 315.14 91.492H317.968ZM321.435 85.878H323.353V96H321.435V85.878ZM325.318 94.082H327.25V96H325.318V94.082ZM329.41 90.204H328.36V88.636H329.41V87.796C329.41 87.2173 329.564 86.7367 329.872 86.354C330.18 85.962 330.689 85.766 331.398 85.766C331.594 85.766 331.809 85.7893 332.042 85.836C332.276 85.8827 332.472 85.934 332.63 85.99V87.334H331.93C331.529 87.334 331.328 87.5347 331.328 87.936V88.636H332.63V90.204H331.328V96H329.41V90.204ZM335.584 96.168C335.015 96.168 334.492 96.0187 334.016 95.72C333.54 95.4213 333.302 94.88 333.302 94.096C333.302 93.1533 333.69 92.486 334.464 92.094C335.239 91.6927 336.336 91.492 337.754 91.492V90.974C337.754 90.6473 337.68 90.3953 337.53 90.218C337.39 90.0407 337.12 89.952 336.718 89.952C336.289 89.952 335.981 90.0173 335.794 90.148C335.617 90.2787 335.528 90.4327 335.528 90.61V90.82H333.68C333.671 90.764 333.666 90.6613 333.666 90.512C333.666 89.896 333.937 89.4013 334.478 89.028C335.029 88.6547 335.757 88.468 336.662 88.468C337.67 88.468 338.422 88.6733 338.916 89.084C339.42 89.4947 339.672 90.0873 339.672 90.862V94.11C339.672 94.278 339.719 94.404 339.812 94.488C339.906 94.5627 340.022 94.6 340.162 94.6H340.554V95.944C340.256 96.0933 339.887 96.168 339.448 96.168C339.066 96.168 338.744 96.084 338.482 95.916C338.23 95.748 338.058 95.51 337.964 95.202H337.88C337.61 95.5193 337.297 95.762 336.942 95.93C336.597 96.0887 336.144 96.168 335.584 96.168ZM336.186 94.656C336.728 94.656 337.124 94.5067 337.376 94.208C337.628 93.9 337.754 93.494 337.754 92.99V92.766C336.084 92.766 335.248 93.1393 335.248 93.886C335.248 94.1193 335.323 94.306 335.472 94.446C335.631 94.586 335.869 94.656 336.186 94.656ZM344.722 96.168C343.546 96.168 342.664 95.8553 342.076 95.23C341.497 94.6047 341.208 93.634 341.208 92.318C341.208 91.0113 341.497 90.0453 342.076 89.42C342.664 88.7853 343.546 88.468 344.722 88.468C345.702 88.468 346.481 88.72 347.06 89.224C347.648 89.7187 347.942 90.4467 347.942 91.408H346.01C346.01 90.96 345.893 90.6147 345.66 90.372C345.426 90.1293 345.1 90.008 344.68 90.008C344.157 90.008 343.77 90.1947 343.518 90.568C343.275 90.932 343.154 91.478 343.154 92.206V92.43C343.154 93.158 343.28 93.7087 343.532 94.082C343.793 94.446 344.208 94.628 344.778 94.628C345.179 94.628 345.496 94.5067 345.73 94.264C345.972 94.012 346.094 93.6667 346.094 93.228H347.942C347.942 94.1893 347.652 94.922 347.074 95.426C346.495 95.9207 345.711 96.168 344.722 96.168ZM349.449 85.878H351.367V89.49H351.465C352.025 88.8087 352.744 88.468 353.621 88.468C354.377 88.468 354.97 88.6733 355.399 89.084C355.838 89.4947 356.057 90.1527 356.057 91.058V96H354.139V91.464C354.139 91.0067 354.032 90.6753 353.817 90.47C353.602 90.2647 353.285 90.162 352.865 90.162C352.436 90.162 352.076 90.316 351.787 90.624C351.507 90.9227 351.367 91.296 351.367 91.744V96H349.449V85.878ZM357.994 85.878H359.912V87.698H357.994V85.878ZM357.994 88.636H359.912V96H357.994V88.636ZM361.904 88.636H363.542L363.682 89.602H363.78C364.377 88.846 365.143 88.468 366.076 88.468C366.832 88.468 367.425 88.6733 367.854 89.084C368.293 89.4947 368.512 90.1527 368.512 91.058V96H366.594V91.464C366.594 91.0067 366.487 90.6753 366.272 90.47C366.057 90.2647 365.74 90.162 365.32 90.162C364.891 90.162 364.531 90.316 364.242 90.624C363.962 90.9227 363.822 91.296 363.822 91.744V96H361.904V88.636ZM373.501 96.168C372.315 96.168 371.429 95.8553 370.841 95.23C370.262 94.6047 369.973 93.634 369.973 92.318C369.973 91.002 370.262 90.0313 370.841 89.406C371.429 88.7807 372.315 88.468 373.501 88.468C374.593 88.468 375.409 88.7853 375.951 89.42C376.492 90.0453 376.763 91.0113 376.763 92.318V92.766H371.919C371.937 93.4193 372.068 93.9047 372.311 94.222C372.553 94.53 372.959 94.684 373.529 94.684C373.93 94.684 374.252 94.572 374.495 94.348C374.747 94.124 374.873 93.8067 374.873 93.396H376.763C376.763 94.32 376.464 95.0153 375.867 95.482C375.269 95.9393 374.481 96.168 373.501 96.168ZM374.775 91.492C374.775 90.4747 374.35 89.966 373.501 89.966C373.015 89.966 372.647 90.092 372.395 90.344C372.152 90.596 372.003 90.9787 371.947 91.492H374.775ZM378.242 85.878H380.16V96H378.242V85.878ZM382.139 85.878H384.057V96H382.139V85.878ZM386.021 85.878H387.939V87.698H386.021V85.878ZM386.021 88.636H387.939V96H386.021V88.636ZM395.504 98.142C393.59 98.142 392.106 97.666 391.052 96.714C390.006 95.762 389.484 94.3013 389.484 92.332C389.484 90.904 389.773 89.7373 390.352 88.832C390.94 87.9173 391.724 87.2547 392.704 86.844C393.684 86.4333 394.799 86.228 396.05 86.228C397.926 86.228 399.424 86.662 400.544 87.53C401.664 88.3887 402.224 89.714 402.224 91.506C402.224 92.4953 402.051 93.3027 401.706 93.928C401.37 94.5533 400.95 95.006 400.446 95.286C399.942 95.5567 399.433 95.692 398.92 95.692C398.481 95.692 398.117 95.608 397.828 95.44C397.538 95.272 397.338 95.0667 397.226 94.824H397.142C396.908 95.1133 396.628 95.3327 396.302 95.482C395.984 95.6313 395.569 95.706 395.056 95.706C394.533 95.706 394.057 95.5753 393.628 95.314C393.198 95.0433 392.984 94.5487 392.984 93.83C392.984 92.9713 393.334 92.36 394.034 91.996C394.743 91.632 395.742 91.45 397.03 91.45V90.988C397.03 90.6893 396.964 90.4607 396.834 90.302C396.703 90.134 396.456 90.05 396.092 90.05C395.709 90.05 395.434 90.1107 395.266 90.232C395.098 90.3533 395.014 90.4933 395.014 90.652V90.848H393.334C393.324 90.792 393.32 90.6987 393.32 90.568C393.32 90.008 393.567 89.56 394.062 89.224C394.556 88.8787 395.214 88.706 396.036 88.706C396.96 88.706 397.646 88.8927 398.094 89.266C398.551 89.6393 398.78 90.176 398.78 90.876V93.83C398.78 94.0447 398.826 94.194 398.92 94.278C399.013 94.362 399.148 94.404 399.326 94.404C399.774 94.404 400.161 94.1707 400.488 93.704C400.814 93.2373 400.978 92.5 400.978 91.492C400.978 90.0733 400.534 89.0233 399.648 88.342C398.77 87.6513 397.566 87.306 396.036 87.306C394.356 87.306 393.049 87.7307 392.116 88.58C391.182 89.4293 390.716 90.6847 390.716 92.346C390.716 93.9233 391.108 95.104 391.892 95.888C392.676 96.672 393.88 97.064 395.504 97.064C395.905 97.064 396.386 97.0173 396.946 96.924C397.506 96.84 397.93 96.7373 398.22 96.616V97.764C397.884 97.8667 397.44 97.9553 396.89 98.03C396.348 98.1047 395.886 98.142 395.504 98.142ZM395.602 94.334C396.096 94.334 396.456 94.1987 396.68 93.928C396.913 93.648 397.03 93.2793 397.03 92.822V92.612C395.508 92.612 394.748 92.9527 394.748 93.634C394.748 93.8393 394.818 94.0073 394.958 94.138C395.107 94.2687 395.322 94.334 395.602 94.334ZM403.758 90.204H402.708V88.636H403.758V87.796C403.758 87.2173 403.912 86.7367 404.22 86.354C404.528 85.962 405.037 85.766 405.746 85.766C405.942 85.766 406.157 85.7893 406.39 85.836C406.623 85.8827 406.819 85.934 406.978 85.99V87.334H406.278C405.877 87.334 405.676 87.5347 405.676 87.936V88.636H406.978V90.204H405.676V96H403.758V90.204ZM409.932 96.168C409.363 96.168 408.84 96.0187 408.364 95.72C407.888 95.4213 407.65 94.88 407.65 94.096C407.65 93.1533 408.037 92.486 408.812 92.094C409.587 91.6927 410.683 91.492 412.102 91.492V90.974C412.102 90.6473 412.027 90.3953 411.878 90.218C411.738 90.0407 411.467 89.952 411.066 89.952C410.637 89.952 410.329 90.0173 410.142 90.148C409.965 90.2787 409.876 90.4327 409.876 90.61V90.82H408.028C408.019 90.764 408.014 90.6613 408.014 90.512C408.014 89.896 408.285 89.4013 408.826 89.028C409.377 88.6547 410.105 88.468 411.01 88.468C412.018 88.468 412.769 88.6733 413.264 89.084C413.768 89.4947 414.02 90.0873 414.02 90.862V94.11C414.02 94.278 414.067 94.404 414.16 94.488C414.253 94.5627 414.37 94.6 414.51 94.6H414.902V95.944C414.603 96.0933 414.235 96.168 413.796 96.168C413.413 96.168 413.091 96.084 412.83 95.916C412.578 95.748 412.405 95.51 412.312 95.202H412.228C411.957 95.5193 411.645 95.762 411.29 95.93C410.945 96.0887 410.492 96.168 409.932 96.168ZM410.534 94.656C411.075 94.656 411.472 94.5067 411.724 94.208C411.976 93.9 412.102 93.494 412.102 92.99V92.766C410.431 92.766 409.596 93.1393 409.596 93.886C409.596 94.1193 409.671 94.306 409.82 94.446C409.979 94.586 410.217 94.656 410.534 94.656ZM417.991 96.168C417.301 96.168 416.806 95.9813 416.507 95.608C416.209 95.2347 416.059 94.7633 416.059 94.194V90.204H415.177V88.636H416.101L416.423 86.564H417.977V88.636H419.251V90.204H417.977V93.998C417.977 94.3993 418.178 94.6 418.579 94.6H419.251V95.944C419.093 96 418.892 96.0513 418.649 96.098C418.416 96.1447 418.197 96.168 417.991 96.168ZM423.718 96.168C422.532 96.168 421.646 95.8553 421.058 95.23C420.479 94.6047 420.19 93.634 420.19 92.318C420.19 91.002 420.479 90.0313 421.058 89.406C421.646 88.7807 422.532 88.468 423.718 88.468C424.81 88.468 425.626 88.7853 426.168 89.42C426.709 90.0453 426.98 91.0113 426.98 92.318V92.766H422.136C422.154 93.4193 422.285 93.9047 422.528 94.222C422.77 94.53 423.176 94.684 423.746 94.684C424.147 94.684 424.469 94.572 424.712 94.348C424.964 94.124 425.09 93.8067 425.09 93.396H426.98C426.98 94.32 426.681 95.0153 426.084 95.482C425.486 95.9393 424.698 96.168 423.718 96.168ZM424.992 91.492C424.992 90.4747 424.567 89.966 423.718 89.966C423.232 89.966 422.864 90.092 422.612 90.344C422.369 90.596 422.22 90.9787 422.164 91.492H424.992ZM431.511 96.168C430.335 96.168 429.453 95.8553 428.865 95.23C428.286 94.6047 427.997 93.634 427.997 92.318C427.997 91.0113 428.286 90.0453 428.865 89.42C429.453 88.7853 430.335 88.468 431.511 88.468C432.491 88.468 433.27 88.72 433.849 89.224C434.437 89.7187 434.731 90.4467 434.731 91.408H432.799C432.799 90.96 432.682 90.6147 432.449 90.372C432.216 90.1293 431.889 90.008 431.469 90.008C430.946 90.008 430.559 90.1947 430.307 90.568C430.064 90.932 429.943 91.478 429.943 92.206V92.43C429.943 93.158 430.069 93.7087 430.321 94.082C430.582 94.446 430.998 94.628 431.567 94.628C431.968 94.628 432.286 94.5067 432.519 94.264C432.762 94.012 432.883 93.6667 432.883 93.228H434.731C434.731 94.1893 434.442 94.922 433.863 95.426C433.284 95.9207 432.5 96.168 431.511 96.168ZM436.224 94.082H438.156V96H436.224V94.082ZM443.075 96.168C442.048 96.168 441.241 95.958 440.653 95.538C440.074 95.1087 439.785 94.5393 439.785 93.83L439.799 93.662H441.661V93.76C441.67 94.0867 441.815 94.3247 442.095 94.474C442.384 94.614 442.734 94.684 443.145 94.684C443.527 94.684 443.854 94.6327 444.125 94.53C444.395 94.4273 444.531 94.2593 444.531 94.026C444.531 93.7647 444.391 93.5687 444.111 93.438C443.84 93.3073 443.411 93.1767 442.823 93.046C442.216 92.906 441.721 92.766 441.339 92.626C440.956 92.4767 440.625 92.248 440.345 91.94C440.065 91.632 439.925 91.2213 439.925 90.708C439.925 89.9893 440.223 89.4387 440.821 89.056C441.427 88.664 442.207 88.468 443.159 88.468C444.045 88.468 444.778 88.65 445.357 89.014C445.935 89.3687 446.225 89.854 446.225 90.47L446.211 90.792H444.349V90.708C444.349 90.4653 444.232 90.2787 443.999 90.148C443.775 90.0173 443.471 89.952 443.089 89.952C442.706 89.952 442.403 90.0033 442.179 90.106C441.955 90.2087 441.843 90.3533 441.843 90.54C441.843 90.7733 441.969 90.946 442.221 91.058C442.482 91.17 442.897 91.282 443.467 91.394C444.092 91.534 444.601 91.674 444.993 91.814C445.385 91.954 445.725 92.1827 446.015 92.5C446.304 92.8173 446.449 93.2467 446.449 93.788C446.449 95.3747 445.324 96.168 443.075 96.168ZM447.914 88.636H449.552L449.678 89.602H449.776C450.009 89.2287 450.322 88.9487 450.714 88.762C451.106 88.566 451.54 88.468 452.016 88.468C452.949 88.468 453.673 88.79 454.186 89.434C454.699 90.0687 454.956 91.0347 454.956 92.332C454.956 93.6013 454.695 94.558 454.172 95.202C453.659 95.846 452.973 96.168 452.114 96.168C451.619 96.168 451.181 96.0793 450.798 95.902C450.425 95.7247 450.131 95.4727 449.916 95.146H449.832V98.422H447.914V88.636ZM451.4 94.502C451.969 94.502 452.375 94.334 452.618 93.998C452.861 93.6527 452.982 93.1347 452.982 92.444V92.192C452.982 91.5013 452.861 90.988 452.618 90.652C452.375 90.3067 451.969 90.134 451.4 90.134C450.355 90.134 449.832 90.82 449.832 92.192V92.416C449.832 93.8067 450.355 94.502 451.4 94.502ZM456.459 94.082H458.391V96H456.459V94.082ZM461.545 98.548C461.032 98.548 460.598 98.3893 460.243 98.072C459.888 97.7547 459.711 97.3487 459.711 96.854C459.711 96.2007 460.089 95.7013 460.845 95.356C460.369 95.1133 460.131 94.7447 460.131 94.25C460.131 93.942 460.252 93.676 460.495 93.452C460.738 93.2187 461.05 93.0553 461.433 92.962C460.714 92.5233 460.355 91.8607 460.355 90.974C460.355 90.1993 460.635 89.588 461.195 89.14C461.764 88.692 462.572 88.468 463.617 88.468C464.186 88.468 464.681 88.538 465.101 88.678C465.381 88.5007 465.582 88.2907 465.703 88.048C465.834 87.796 465.899 87.5813 465.899 87.404H467.775C467.775 87.9173 467.635 88.3327 467.355 88.65C467.084 88.958 466.697 89.168 466.193 89.28C466.66 89.7187 466.893 90.2833 466.893 90.974C466.893 91.7487 466.618 92.36 466.067 92.808C465.526 93.256 464.746 93.48 463.729 93.48H462.609C462.441 93.48 462.306 93.5173 462.203 93.592C462.11 93.6667 462.063 93.7693 462.063 93.9C462.063 94.012 462.105 94.11 462.189 94.194C462.273 94.2687 462.385 94.306 462.525 94.306H465.871C466.412 94.306 466.865 94.488 467.229 94.852C467.593 95.216 467.775 95.692 467.775 96.28C467.775 96.728 467.654 97.1247 467.411 97.47C467.168 97.8153 466.837 98.0813 466.417 98.268C465.997 98.4547 465.535 98.548 465.031 98.548H461.545ZM463.617 92.178C464.065 92.178 464.406 92.0753 464.639 91.87C464.872 91.6553 464.989 91.3567 464.989 90.974C464.989 90.5913 464.872 90.2973 464.639 90.092C464.406 89.8773 464.065 89.77 463.617 89.77C463.169 89.77 462.828 89.8773 462.595 90.092C462.371 90.2973 462.259 90.5913 462.259 90.974C462.259 91.3567 462.371 91.6553 462.595 91.87C462.828 92.0753 463.169 92.178 463.617 92.178ZM465.003 97.218C465.246 97.218 465.446 97.1573 465.605 97.036C465.764 96.9147 465.843 96.756 465.843 96.56C465.843 96.3547 465.768 96.196 465.619 96.084C465.479 95.972 465.302 95.916 465.087 95.916H462.385C462.18 95.916 462.002 95.9767 461.853 96.098C461.713 96.2193 461.643 96.3733 461.643 96.56C461.643 96.756 461.713 96.9147 461.853 97.036C461.993 97.1573 462.17 97.218 462.385 97.218H465.003ZM472.204 96.168C470.944 96.168 470.006 95.8553 469.39 95.23C468.774 94.6047 468.466 93.634 468.466 92.318C468.466 91.002 468.774 90.0313 469.39 89.406C470.006 88.7807 470.944 88.468 472.204 88.468C473.464 88.468 474.402 88.7807 475.018 89.406C475.643 90.0313 475.956 91.002 475.956 92.318C475.956 93.634 475.643 94.6047 475.018 95.23C474.402 95.8553 473.464 96.168 472.204 96.168ZM472.204 94.6C472.829 94.6 473.282 94.4227 473.562 94.068C473.842 93.704 473.982 93.158 473.982 92.43V92.206C473.982 91.478 473.842 90.9367 473.562 90.582C473.282 90.218 472.829 90.036 472.204 90.036C471.578 90.036 471.126 90.218 470.846 90.582C470.575 90.9367 470.44 91.478 470.44 92.206V92.43C470.44 93.158 470.575 93.704 470.846 94.068C471.126 94.4227 471.578 94.6 472.204 94.6ZM476.618 88.636H478.62L479.768 91.8C479.899 92.1547 480.104 92.892 480.384 94.012H480.454C480.716 92.9573 480.921 92.22 481.07 91.8L482.204 88.636H484.15L481.392 96H479.362L476.618 88.636ZM484.732 94.082H486.664V96H484.732V94.082ZM492.744 96.168C492.268 96.168 491.834 96.0747 491.442 95.888C491.05 95.692 490.738 95.4073 490.504 95.034H490.406L490.28 96H488.642V85.878H490.56V89.49H490.644C490.859 89.1633 491.153 88.9113 491.526 88.734C491.909 88.5567 492.348 88.468 492.842 88.468C493.701 88.468 494.387 88.79 494.9 89.434C495.423 90.078 495.684 91.0347 495.684 92.304C495.684 93.6013 495.428 94.572 494.914 95.216C494.401 95.8507 493.678 96.168 492.744 96.168ZM492.128 94.502C492.698 94.502 493.104 94.334 493.346 93.998C493.589 93.6527 493.71 93.1347 493.71 92.444V92.192C493.71 91.5013 493.589 90.988 493.346 90.652C493.104 90.3067 492.698 90.134 492.128 90.134C491.083 90.134 490.56 90.8293 490.56 92.22V92.444C490.56 93.816 491.083 94.502 492.128 94.502ZM497.201 88.636H498.839L498.993 89.826H499.091C499.25 89.406 499.455 89.0747 499.707 88.832C499.959 88.5893 500.29 88.468 500.701 88.468C500.972 88.468 501.214 88.51 501.429 88.594V90.386H500.897C500.272 90.386 499.819 90.5587 499.539 90.904C499.259 91.24 499.119 91.7533 499.119 92.444V96H497.201V88.636Z" fill="#333333"/>
<path d="M287.056 123.636H289.03L289.828 126.66C289.912 126.987 290.057 127.691 290.262 128.774H290.318C290.523 127.775 290.673 127.075 290.766 126.674L291.522 123.636H293.496L294.294 126.688C294.406 127.117 294.56 127.813 294.756 128.774H294.812C294.989 127.878 295.139 127.183 295.26 126.688L296.016 123.636H297.836L295.652 131H293.664L292.824 127.486C292.721 127.038 292.609 126.497 292.488 125.862H292.418C292.334 126.487 292.236 127.024 292.124 127.472L291.242 131H289.254L287.056 123.636ZM297.952 123.636H299.926L300.724 126.66C300.808 126.987 300.953 127.691 301.158 128.774H301.214C301.42 127.775 301.569 127.075 301.662 126.674L302.418 123.636H304.392L305.19 126.688C305.302 127.117 305.456 127.813 305.652 128.774H305.708C305.886 127.878 306.035 127.183 306.156 126.688L306.912 123.636H308.732L306.548 131H304.56L303.72 127.486C303.618 127.038 303.506 126.497 303.384 125.862H303.314C303.23 126.487 303.132 127.024 303.02 127.472L302.138 131H300.15L297.952 123.636ZM308.849 123.636H310.823L311.621 126.66C311.705 126.987 311.85 127.691 312.055 128.774H312.111C312.316 127.775 312.466 127.075 312.559 126.674L313.315 123.636H315.289L316.087 126.688C316.199 127.117 316.353 127.813 316.549 128.774H316.605C316.782 127.878 316.932 127.183 317.053 126.688L317.809 123.636H319.629L317.445 131H315.457L314.617 127.486C314.514 127.038 314.402 126.497 314.281 125.862H314.211C314.127 126.487 314.029 127.024 313.917 127.472L313.035 131H311.047L308.849 123.636ZM320.15 129.082H322.082V131H320.15V129.082ZM324.06 120.878H325.978V131H324.06V120.878ZM327.943 120.878H329.861V122.698H327.943V120.878ZM327.943 123.636H329.861V131H327.943V123.636ZM331.853 123.636H333.491L333.631 124.602H333.729C334.327 123.846 335.092 123.468 336.025 123.468C336.781 123.468 337.374 123.673 337.803 124.084C338.242 124.495 338.461 125.153 338.461 126.058V131H336.543V126.464C336.543 126.007 336.436 125.675 336.221 125.47C336.007 125.265 335.689 125.162 335.269 125.162C334.84 125.162 334.481 125.316 334.191 125.624C333.911 125.923 333.771 126.296 333.771 126.744V131H331.853V123.636ZM340.412 120.878H342.33V126.562L344.766 123.636H346.978L344.542 126.464L347.118 131H344.92L343.31 127.878L342.33 128.83V131H340.412V120.878ZM351.229 131.168C350.044 131.168 349.157 130.855 348.569 130.23C347.991 129.605 347.701 128.634 347.701 127.318C347.701 126.002 347.991 125.031 348.569 124.406C349.157 123.781 350.044 123.468 351.229 123.468C352.321 123.468 353.138 123.785 353.679 124.42C354.221 125.045 354.491 126.011 354.491 127.318V127.766H349.647C349.666 128.419 349.797 128.905 350.039 129.222C350.282 129.53 350.688 129.684 351.257 129.684C351.659 129.684 351.981 129.572 352.223 129.348C352.475 129.124 352.601 128.807 352.601 128.396H354.491C354.491 129.32 354.193 130.015 353.595 130.482C352.998 130.939 352.209 131.168 351.229 131.168ZM352.503 126.492C352.503 125.475 352.079 124.966 351.229 124.966C350.744 124.966 350.375 125.092 350.123 125.344C349.881 125.596 349.731 125.979 349.675 126.492H352.503ZM358.435 131.168C357.501 131.168 356.778 130.851 356.265 130.216C355.751 129.572 355.495 128.601 355.495 127.304C355.495 126.035 355.751 125.078 356.265 124.434C356.787 123.79 357.478 123.468 358.337 123.468C358.831 123.468 359.265 123.557 359.639 123.734C360.021 123.911 360.32 124.163 360.535 124.49H360.619V120.878H362.537V131H360.899L360.773 130.034H360.675C360.441 130.407 360.129 130.692 359.737 130.888C359.345 131.075 358.911 131.168 358.435 131.168ZM359.051 129.502C360.096 129.502 360.619 128.816 360.619 127.444V127.22C360.619 125.829 360.096 125.134 359.051 125.134C358.481 125.134 358.075 125.307 357.833 125.652C357.59 125.988 357.469 126.501 357.469 127.192V127.444C357.469 128.135 357.59 128.653 357.833 128.998C358.075 129.334 358.481 129.502 359.051 129.502ZM364.515 120.878H366.433V122.698H364.515V120.878ZM364.515 123.636H366.433V131H364.515V123.636ZM368.426 123.636H370.064L370.204 124.602H370.302C370.899 123.846 371.664 123.468 372.598 123.468C373.354 123.468 373.946 123.673 374.376 124.084C374.814 124.495 375.034 125.153 375.034 126.058V131H373.116V126.464C373.116 126.007 373.008 125.675 372.794 125.47C372.579 125.265 372.262 125.162 371.842 125.162C371.412 125.162 371.053 125.316 370.764 125.624C370.484 125.923 370.344 126.296 370.344 126.744V131H368.426V123.636ZM376.97 129.082H378.902V131H376.97V129.082ZM383.933 131.168C382.757 131.168 381.875 130.855 381.287 130.23C380.708 129.605 380.419 128.634 380.419 127.318C380.419 126.011 380.708 125.045 381.287 124.42C381.875 123.785 382.757 123.468 383.933 123.468C384.913 123.468 385.692 123.72 386.271 124.224C386.859 124.719 387.153 125.447 387.153 126.408H385.221C385.221 125.96 385.104 125.615 384.871 125.372C384.637 125.129 384.311 125.008 383.891 125.008C383.368 125.008 382.981 125.195 382.729 125.568C382.486 125.932 382.365 126.478 382.365 127.206V127.43C382.365 128.158 382.491 128.709 382.743 129.082C383.004 129.446 383.419 129.628 383.989 129.628C384.39 129.628 384.707 129.507 384.941 129.264C385.183 129.012 385.305 128.667 385.305 128.228H387.153C387.153 129.189 386.863 129.922 386.285 130.426C385.706 130.921 384.922 131.168 383.933 131.168ZM391.936 131.168C390.676 131.168 389.738 130.855 389.122 130.23C388.506 129.605 388.198 128.634 388.198 127.318C388.198 126.002 388.506 125.031 389.122 124.406C389.738 123.781 390.676 123.468 391.936 123.468C393.196 123.468 394.134 123.781 394.75 124.406C395.375 125.031 395.688 126.002 395.688 127.318C395.688 128.634 395.375 129.605 394.75 130.23C394.134 130.855 393.196 131.168 391.936 131.168ZM391.936 129.6C392.561 129.6 393.014 129.423 393.294 129.068C393.574 128.704 393.714 128.158 393.714 127.43V127.206C393.714 126.478 393.574 125.937 393.294 125.582C393.014 125.218 392.561 125.036 391.936 125.036C391.311 125.036 390.858 125.218 390.578 125.582C390.307 125.937 390.172 126.478 390.172 127.206V127.43C390.172 128.158 390.307 128.704 390.578 129.068C390.858 129.423 391.311 129.6 391.936 129.6ZM397.219 123.636H398.857L398.997 124.602H399.095C399.636 123.846 400.336 123.468 401.195 123.468C402.128 123.468 402.772 123.846 403.127 124.602H403.239C403.799 123.846 404.527 123.468 405.423 123.468C406.123 123.468 406.678 123.673 407.089 124.084C407.509 124.495 407.719 125.153 407.719 126.058V131H405.801V126.464C405.801 125.596 405.441 125.162 404.723 125.162C404.349 125.162 404.041 125.316 403.799 125.624C403.556 125.923 403.435 126.296 403.435 126.744V131H401.517V126.464C401.517 125.596 401.157 125.162 400.439 125.162C400.065 125.162 399.753 125.316 399.501 125.624C399.258 125.923 399.137 126.296 399.137 126.744V131H397.219V123.636ZM411.214 120.71H412.544L410.024 131.686H408.68L411.214 120.71ZM413.543 120.878H415.461V122.698H413.543V120.878ZM413.543 123.636H415.461V131H413.543V123.636ZM417.453 123.636H419.091L419.231 124.602H419.329C419.926 123.846 420.692 123.468 421.625 123.468C422.381 123.468 422.974 123.673 423.403 124.084C423.842 124.495 424.061 125.153 424.061 126.058V131H422.143V126.464C422.143 126.007 422.036 125.675 421.821 125.47C421.606 125.265 421.289 125.162 420.869 125.162C420.44 125.162 420.08 125.316 419.791 125.624C419.511 125.923 419.371 126.296 419.371 126.744V131H417.453V123.636ZM427.566 120.71H428.896L426.376 131.686H425.032L427.566 120.71ZM429.908 123.636H431.546L431.7 124.826H431.798C431.957 124.406 432.162 124.075 432.414 123.832C432.666 123.589 432.997 123.468 433.408 123.468C433.679 123.468 433.921 123.51 434.136 123.594V125.386H433.604C432.979 125.386 432.526 125.559 432.246 125.904C431.966 126.24 431.826 126.753 431.826 127.444V131H429.908V123.636ZM437.043 131.168C436.474 131.168 435.951 131.019 435.475 130.72C434.999 130.421 434.761 129.88 434.761 129.096C434.761 128.153 435.149 127.486 435.923 127.094C436.698 126.693 437.795 126.492 439.213 126.492V125.974C439.213 125.647 439.139 125.395 438.989 125.218C438.849 125.041 438.579 124.952 438.177 124.952C437.748 124.952 437.44 125.017 437.253 125.148C437.076 125.279 436.987 125.433 436.987 125.61V125.82H435.139C435.13 125.764 435.125 125.661 435.125 125.512C435.125 124.896 435.396 124.401 435.937 124.028C436.488 123.655 437.216 123.468 438.121 123.468C439.129 123.468 439.881 123.673 440.375 124.084C440.879 124.495 441.131 125.087 441.131 125.862V129.11C441.131 129.278 441.178 129.404 441.271 129.488C441.365 129.563 441.481 129.6 441.621 129.6H442.013V130.944C441.715 131.093 441.346 131.168 440.907 131.168C440.525 131.168 440.203 131.084 439.941 130.916C439.689 130.748 439.517 130.51 439.423 130.202H439.339C439.069 130.519 438.756 130.762 438.401 130.93C438.056 131.089 437.603 131.168 437.043 131.168ZM437.645 129.656C438.187 129.656 438.583 129.507 438.835 129.208C439.087 128.9 439.213 128.494 439.213 127.99V127.766C437.543 127.766 436.707 128.139 436.707 128.886C436.707 129.119 436.782 129.306 436.931 129.446C437.09 129.586 437.328 129.656 437.645 129.656ZM443.311 125.204H442.261V123.636H443.311V122.796C443.311 122.217 443.465 121.737 443.773 121.354C444.081 120.962 444.589 120.766 445.299 120.766C445.495 120.766 445.709 120.789 445.943 120.836C446.176 120.883 446.372 120.934 446.531 120.99V122.334H445.831C445.429 122.334 445.229 122.535 445.229 122.936V123.636H446.531V125.204H445.229V131H443.311V125.204ZM449.485 131.168C448.916 131.168 448.393 131.019 447.917 130.72C447.441 130.421 447.203 129.88 447.203 129.096C447.203 128.153 447.59 127.486 448.365 127.094C449.14 126.693 450.236 126.492 451.655 126.492V125.974C451.655 125.647 451.58 125.395 451.431 125.218C451.291 125.041 451.02 124.952 450.619 124.952C450.19 124.952 449.882 125.017 449.695 125.148C449.518 125.279 449.429 125.433 449.429 125.61V125.82H447.581C447.572 125.764 447.567 125.661 447.567 125.512C447.567 124.896 447.838 124.401 448.379 124.028C448.93 123.655 449.658 123.468 450.563 123.468C451.571 123.468 452.322 123.673 452.817 124.084C453.321 124.495 453.573 125.087 453.573 125.862V129.11C453.573 129.278 453.62 129.404 453.713 129.488C453.806 129.563 453.923 129.6 454.063 129.6H454.455V130.944C454.156 131.093 453.788 131.168 453.349 131.168C452.966 131.168 452.644 131.084 452.383 130.916C452.131 130.748 451.958 130.51 451.865 130.202H451.781C451.51 130.519 451.198 130.762 450.843 130.93C450.498 131.089 450.045 131.168 449.485 131.168ZM450.087 129.656C450.628 129.656 451.025 129.507 451.277 129.208C451.529 128.9 451.655 128.494 451.655 127.99V127.766C449.984 127.766 449.149 128.139 449.149 128.886C449.149 129.119 449.224 129.306 449.373 129.446C449.532 129.586 449.77 129.656 450.087 129.656ZM458.608 131.168C457.423 131.168 456.536 130.855 455.948 130.23C455.37 129.605 455.08 128.634 455.08 127.318C455.08 126.002 455.37 125.031 455.948 124.406C456.536 123.781 457.423 123.468 458.608 123.468C459.7 123.468 460.517 123.785 461.058 124.42C461.6 125.045 461.87 126.011 461.87 127.318V127.766H457.026C457.045 128.419 457.176 128.905 457.418 129.222C457.661 129.53 458.067 129.684 458.636 129.684C459.038 129.684 459.36 129.572 459.602 129.348C459.854 129.124 459.98 128.807 459.98 128.396H461.87C461.87 129.32 461.572 130.015 460.974 130.482C460.377 130.939 459.588 131.168 458.608 131.168ZM459.882 126.492C459.882 125.475 459.458 124.966 458.608 124.966C458.123 124.966 457.754 125.092 457.502 125.344C457.26 125.596 457.11 125.979 457.054 126.492H459.882ZM463.349 120.878H465.267V131H463.349V120.878ZM467.428 125.204H466.378V123.636H467.428V122.796C467.428 122.217 467.582 121.737 467.89 121.354C468.198 120.962 468.707 120.766 469.416 120.766C469.612 120.766 469.827 120.789 470.06 120.836C470.293 120.883 470.489 120.934 470.648 120.99V122.334H469.948C469.547 122.334 469.346 122.535 469.346 122.936V123.636H470.648V125.204H469.346V131H467.428V125.204ZM473.602 131.168C473.033 131.168 472.51 131.019 472.034 130.72C471.558 130.421 471.32 129.88 471.32 129.096C471.32 128.153 471.707 127.486 472.482 127.094C473.257 126.693 474.353 126.492 475.772 126.492V125.974C475.772 125.647 475.697 125.395 475.548 125.218C475.408 125.041 475.137 124.952 474.736 124.952C474.307 124.952 473.999 125.017 473.812 125.148C473.635 125.279 473.546 125.433 473.546 125.61V125.82H471.698C471.689 125.764 471.684 125.661 471.684 125.512C471.684 124.896 471.955 124.401 472.496 124.028C473.047 123.655 473.775 123.468 474.68 123.468C475.688 123.468 476.439 123.673 476.934 124.084C477.438 124.495 477.69 125.087 477.69 125.862V129.11C477.69 129.278 477.737 129.404 477.83 129.488C477.923 129.563 478.04 129.6 478.18 129.6H478.572V130.944C478.273 131.093 477.905 131.168 477.466 131.168C477.083 131.168 476.761 131.084 476.5 130.916C476.248 130.748 476.075 130.51 475.982 130.202H475.898C475.627 130.519 475.315 130.762 474.96 130.93C474.615 131.089 474.162 131.168 473.602 131.168ZM474.204 129.656C474.745 129.656 475.142 129.507 475.394 129.208C475.646 128.9 475.772 128.494 475.772 127.99V127.766C474.101 127.766 473.266 128.139 473.266 128.886C473.266 129.119 473.341 129.306 473.49 129.446C473.649 129.586 473.887 129.656 474.204 129.656ZM482.739 131.168C481.563 131.168 480.681 130.855 480.093 130.23C479.515 129.605 479.225 128.634 479.225 127.318C479.225 126.011 479.515 125.045 480.093 124.42C480.681 123.785 481.563 123.468 482.739 123.468C483.719 123.468 484.499 123.72 485.077 124.224C485.665 124.719 485.959 125.447 485.959 126.408H484.027C484.027 125.96 483.911 125.615 483.677 125.372C483.444 125.129 483.117 125.008 482.697 125.008C482.175 125.008 481.787 125.195 481.535 125.568C481.293 125.932 481.171 126.478 481.171 127.206V127.43C481.171 128.158 481.297 128.709 481.549 129.082C481.811 129.446 482.226 129.628 482.795 129.628C483.197 129.628 483.514 129.507 483.747 129.264C483.99 129.012 484.111 128.667 484.111 128.228H485.959C485.959 129.189 485.67 129.922 485.091 130.426C484.513 130.921 483.729 131.168 482.739 131.168ZM487.467 120.878H489.385V124.49H489.483C490.043 123.809 490.761 123.468 491.639 123.468C492.395 123.468 492.987 123.673 493.417 124.084C493.855 124.495 494.075 125.153 494.075 126.058V131H492.157V126.464C492.157 126.007 492.049 125.675 491.835 125.47C491.62 125.265 491.303 125.162 490.883 125.162C490.453 125.162 490.094 125.316 489.805 125.624C489.525 125.923 489.385 126.296 489.385 126.744V131H487.467V120.878ZM496.011 120.878H497.929V122.698H496.011V120.878ZM496.011 123.636H497.929V131H496.011V123.636ZM499.922 123.636H501.56L501.7 124.602H501.798C502.395 123.846 503.16 123.468 504.094 123.468C504.85 123.468 505.442 123.673 505.872 124.084C506.31 124.495 506.53 125.153 506.53 126.058V131H504.612V126.464C504.612 126.007 504.504 125.675 504.29 125.47C504.075 125.265 503.758 125.162 503.338 125.162C502.908 125.162 502.549 125.316 502.26 125.624C501.98 125.923 501.84 126.296 501.84 126.744V131H499.922V123.636ZM511.518 131.168C510.333 131.168 509.446 130.855 508.858 130.23C508.28 129.605 507.99 128.634 507.99 127.318C507.99 126.002 508.28 125.031 508.858 124.406C509.446 123.781 510.333 123.468 511.518 123.468C512.61 123.468 513.427 123.785 513.968 124.42C514.51 125.045 514.78 126.011 514.78 127.318V127.766H509.936C509.955 128.419 510.086 128.905 510.328 129.222C510.571 129.53 510.977 129.684 511.546 129.684C511.948 129.684 512.27 129.572 512.512 129.348C512.764 129.124 512.89 128.807 512.89 128.396H514.78C514.78 129.32 514.482 130.015 513.884 130.482C513.287 130.939 512.498 131.168 511.518 131.168ZM512.792 126.492C512.792 125.475 512.368 124.966 511.518 124.966C511.033 124.966 510.664 125.092 510.412 125.344C510.17 125.596 510.02 125.979 509.964 126.492H512.792ZM516.26 120.878H518.178V131H516.26V120.878ZM520.156 120.878H522.074V131H520.156V120.878ZM524.039 120.878H525.957V122.698H524.039V120.878ZM524.039 123.636H525.957V131H524.039V123.636Z" fill="#333333"/>
<path d="M264.76 33L260.672 25.58H259.524V33H254.736V13.344H262.772C264.321 13.344 265.637 13.6147 266.72 14.156C267.821 14.6973 268.643 15.444 269.184 16.396C269.725 17.3293 269.996 18.3747 269.996 19.532C269.996 20.8387 269.623 22.0053 268.876 23.032C268.148 24.0587 267.065 24.7867 265.628 25.216L270.164 33H264.76ZM259.524 22.192H262.492C263.369 22.192 264.023 21.9773 264.452 21.548C264.9 21.1187 265.124 20.512 265.124 19.728C265.124 18.9813 264.9 18.3933 264.452 17.964C264.023 17.5347 263.369 17.32 262.492 17.32H259.524V22.192ZM272.05 25.16C272.05 23.5547 272.348 22.1453 272.946 20.932C273.562 19.7187 274.392 18.7853 275.438 18.132C276.483 17.4787 277.65 17.152 278.938 17.152C280.039 17.152 281 17.376 281.822 17.824C282.662 18.272 283.306 18.86 283.754 19.588V17.376H288.542V33H283.754V30.788C283.287 31.516 282.634 32.104 281.794 32.552C280.972 33 280.011 33.224 278.91 33.224C277.64 33.224 276.483 32.8973 275.438 32.244C274.392 31.572 273.562 30.6293 272.946 29.416C272.348 28.184 272.05 26.7653 272.05 25.16ZM283.754 25.188C283.754 23.9933 283.418 23.0507 282.746 22.36C282.092 21.6693 281.29 21.324 280.338 21.324C279.386 21.324 278.574 21.6693 277.902 22.36C277.248 23.032 276.922 23.9653 276.922 25.16C276.922 26.3547 277.248 27.3067 277.902 28.016C278.574 28.7067 279.386 29.052 280.338 29.052C281.29 29.052 282.092 28.7067 282.746 28.016C283.418 27.3253 283.754 26.3827 283.754 25.188ZM299.846 21.352H297.27V33H292.482V21.352H290.746V17.376H292.482V16.928C292.482 15.0053 293.032 13.5493 294.134 12.56C295.235 11.552 296.85 11.048 298.978 11.048C299.332 11.048 299.594 11.0573 299.762 11.076V15.136C298.847 15.08 298.203 15.2107 297.83 15.528C297.456 15.8453 297.27 16.4147 297.27 17.236V17.376H299.846V21.352ZM301.143 25.16C301.143 23.5547 301.442 22.1453 302.039 20.932C302.655 19.7187 303.486 18.7853 304.531 18.132C305.577 17.4787 306.743 17.152 308.031 17.152C309.133 17.152 310.094 17.376 310.915 17.824C311.755 18.272 312.399 18.86 312.847 19.588V17.376H317.635V33H312.847V30.788C312.381 31.516 311.727 32.104 310.887 32.552C310.066 33 309.105 33.224 308.003 33.224C306.734 33.224 305.577 32.8973 304.531 32.244C303.486 31.572 302.655 30.6293 302.039 29.416C301.442 28.184 301.143 26.7653 301.143 25.16ZM312.847 25.188C312.847 23.9933 312.511 23.0507 311.839 22.36C311.186 21.6693 310.383 21.324 309.431 21.324C308.479 21.324 307.667 21.6693 306.995 22.36C306.342 23.032 306.015 23.9653 306.015 25.16C306.015 26.3547 306.342 27.3067 306.995 28.016C307.667 28.7067 308.479 29.052 309.431 29.052C310.383 29.052 311.186 28.7067 311.839 28.016C312.511 27.3253 312.847 26.3827 312.847 25.188ZM335.827 24.936C335.827 25.384 335.799 25.8507 335.743 26.336H324.907C324.982 27.3067 325.29 28.0533 325.831 28.576C326.391 29.08 327.073 29.332 327.875 29.332C329.07 29.332 329.901 28.828 330.367 27.82H335.463C335.202 28.8467 334.726 29.7707 334.035 30.592C333.363 31.4133 332.514 32.0573 331.487 32.524C330.461 32.9907 329.313 33.224 328.043 33.224C326.513 33.224 325.15 32.8973 323.955 32.244C322.761 31.5907 321.827 30.6573 321.155 29.444C320.483 28.2307 320.147 26.812 320.147 25.188C320.147 23.564 320.474 22.1453 321.127 20.932C321.799 19.7187 322.733 18.7853 323.927 18.132C325.122 17.4787 326.494 17.152 328.043 17.152C329.555 17.152 330.899 17.4693 332.075 18.104C333.251 18.7387 334.166 19.644 334.819 20.82C335.491 21.996 335.827 23.368 335.827 24.936ZM330.927 23.676C330.927 22.8547 330.647 22.2013 330.087 21.716C329.527 21.2307 328.827 20.988 327.987 20.988C327.185 20.988 326.503 21.2213 325.943 21.688C325.402 22.1547 325.066 22.8173 324.935 23.676H330.927ZM343.141 12.28V33H338.353V12.28H343.141ZM365.341 13.344V17.18H357.333V21.324H363.325V25.048H357.333V33H352.545V13.344H365.341ZM366.905 25.16C366.905 23.5547 367.204 22.1453 367.801 20.932C368.417 19.7187 369.248 18.7853 370.293 18.132C371.338 17.4787 372.505 17.152 373.793 17.152C374.894 17.152 375.856 17.376 376.677 17.824C377.517 18.272 378.161 18.86 378.609 19.588V17.376H383.397V33H378.609V30.788C378.142 31.516 377.489 32.104 376.649 32.552C375.828 33 374.866 33.224 373.765 33.224C372.496 33.224 371.338 32.8973 370.293 32.244C369.248 31.572 368.417 30.6293 367.801 29.416C367.204 28.184 366.905 26.7653 366.905 25.16ZM378.609 25.188C378.609 23.9933 378.273 23.0507 377.601 22.36C376.948 21.6693 376.145 21.324 375.193 21.324C374.241 21.324 373.429 21.6693 372.757 22.36C372.104 23.032 371.777 23.9653 371.777 25.16C371.777 26.3547 372.104 27.3067 372.757 28.016C373.429 28.7067 374.241 29.052 375.193 29.052C376.145 29.052 376.948 28.7067 377.601 28.016C378.273 27.3253 378.609 26.3827 378.609 25.188ZM385.909 25.188C385.909 23.564 386.236 22.1453 386.889 20.932C387.561 19.7187 388.485 18.7853 389.661 18.132C390.856 17.4787 392.218 17.152 393.749 17.152C395.709 17.152 397.342 17.6653 398.649 18.692C399.974 19.7187 400.842 21.1653 401.253 23.032H396.157C395.728 21.8373 394.897 21.24 393.665 21.24C392.788 21.24 392.088 21.5853 391.565 22.276C391.042 22.948 390.781 23.9187 390.781 25.188C390.781 26.4573 391.042 27.4373 391.565 28.128C392.088 28.8 392.788 29.136 393.665 29.136C394.897 29.136 395.728 28.5387 396.157 27.344H401.253C400.842 29.1733 399.974 30.6107 398.649 31.656C397.324 32.7013 395.69 33.224 393.749 33.224C392.218 33.224 390.856 32.8973 389.661 32.244C388.485 31.5907 387.561 30.6573 386.889 29.444C386.236 28.2307 385.909 26.812 385.909 25.188ZM413.418 17.208C415.21 17.208 416.647 17.8053 417.73 19C418.813 20.176 419.354 21.8 419.354 23.872V33H414.594V24.516C414.594 23.4707 414.323 22.6587 413.782 22.08C413.241 21.5013 412.513 21.212 411.598 21.212C410.683 21.212 409.955 21.5013 409.414 22.08C408.873 22.6587 408.602 23.4707 408.602 24.516V33H403.814V12.28H408.602V19.476C409.087 18.7853 409.75 18.2347 410.59 17.824C411.43 17.4133 412.373 17.208 413.418 17.208ZM425.089 15.752C424.249 15.752 423.559 15.5093 423.017 15.024C422.495 14.52 422.233 13.904 422.233 13.176C422.233 12.4293 422.495 11.8133 423.017 11.328C423.559 10.824 424.249 10.572 425.089 10.572C425.911 10.572 426.583 10.824 427.105 11.328C427.647 11.8133 427.917 12.4293 427.917 13.176C427.917 13.904 427.647 14.52 427.105 15.024C426.583 15.5093 425.911 15.752 425.089 15.752ZM427.469 17.376V33H422.681V17.376H427.469ZM440.459 17.208C442.288 17.208 443.744 17.8053 444.827 19C445.928 20.176 446.479 21.8 446.479 23.872V33H441.719V24.516C441.719 23.4707 441.448 22.6587 440.907 22.08C440.366 21.5013 439.638 21.212 438.723 21.212C437.808 21.212 437.08 21.5013 436.539 22.08C435.998 22.6587 435.727 23.4707 435.727 24.516V33H430.939V17.376H435.727V19.448C436.212 18.7573 436.866 18.216 437.687 17.824C438.508 17.4133 439.432 17.208 440.459 17.208ZM464.534 24.936C464.534 25.384 464.506 25.8507 464.45 26.336H453.614C453.689 27.3067 453.997 28.0533 454.538 28.576C455.098 29.08 455.78 29.332 456.582 29.332C457.777 29.332 458.608 28.828 459.074 27.82H464.17C463.909 28.8467 463.433 29.7707 462.742 30.592C462.07 31.4133 461.221 32.0573 460.194 32.524C459.168 32.9907 458.02 33.224 456.75 33.224C455.22 33.224 453.857 32.8973 452.662 32.244C451.468 31.5907 450.534 30.6573 449.862 29.444C449.19 28.2307 448.854 26.812 448.854 25.188C448.854 23.564 449.181 22.1453 449.834 20.932C450.506 19.7187 451.44 18.7853 452.634 18.132C453.829 17.4787 455.201 17.152 456.75 17.152C458.262 17.152 459.606 17.4693 460.782 18.104C461.958 18.7387 462.873 19.644 463.526 20.82C464.198 21.996 464.534 23.368 464.534 24.936ZM459.634 23.676C459.634 22.8547 459.354 22.2013 458.794 21.716C458.234 21.2307 457.534 20.988 456.694 20.988C455.892 20.988 455.21 21.2213 454.65 21.688C454.109 22.1547 453.773 22.8173 453.642 23.676H459.634ZM471.848 12.28V33H467.06V12.28H471.848ZM480.106 12.28V33H475.318V12.28H480.106ZM485.984 15.752C485.144 15.752 484.453 15.5093 483.912 15.024C483.389 14.52 483.128 13.904 483.128 13.176C483.128 12.4293 483.389 11.8133 483.912 11.328C484.453 10.824 485.144 10.572 485.984 10.572C486.805 10.572 487.477 10.824 488 11.328C488.541 11.8133 488.812 12.4293 488.812 13.176C488.812 13.904 488.541 14.52 488 15.024C487.477 15.5093 486.805 15.752 485.984 15.752ZM488.364 17.376V33H483.576V17.376H488.364Z" fill="#333333"/>
<path d="M142.899 27.9739L127.541 0H228.466L212.011 27.9739H142.899Z" fill="#2F80ED"/>
<path d="M204.606 41.6866H142.899L124.25 76.5168L140.705 103.942L160.726 68.0149H187.877L204.606 41.6866Z" fill="#2F80ED"/>
<path d="M115.474 147L131.929 118.203L102.858 68.0149H109.989L130.009 33.7332L109.989 0H0.835815L18.1138 27.6996H85.5802L91.3396 33.7332L85.5802 40.3153H26.6157L43.3451 68.0149H70.4963L115.474 147Z" fill="#2F80ED"/>
</svg>
