<svg width="297" height="42" viewBox="0 0 297 42" fill="none" xmlns="http://www.w3.org/2000/svg">
<path d="M82.334 16.168C80.7847 16.168 79.618 15.7573 78.834 14.936C78.05 14.1053 77.658 12.8593 77.658 11.198C77.658 9.53667 78.05 8.29533 78.834 7.474C79.618 6.64333 80.7847 6.228 82.334 6.228C83.5847 6.228 84.5833 6.54067 85.33 7.166C86.086 7.782 86.464 8.68267 86.464 9.868H85.106C85.106 9.04667 84.8587 8.426 84.364 8.006C83.8787 7.57667 83.202 7.362 82.334 7.362C81.2047 7.362 80.374 7.66067 79.842 8.258C79.31 8.85533 79.0393 9.826 79.03 11.17V11.198C79.03 12.5513 79.296 13.5313 79.828 14.138C80.36 14.7353 81.1953 15.034 82.334 15.034C83.2207 15.034 83.9113 14.824 84.406 14.404C84.91 13.984 85.162 13.368 85.162 12.556H86.464C86.464 13.7507 86.0907 14.6513 85.344 15.258C84.5973 15.8647 83.594 16.168 82.334 16.168ZM90.9955 16.168C89.8662 16.168 89.0168 15.8553 88.4475 15.23C87.8782 14.5953 87.5935 13.6247 87.5935 12.318C87.5935 11.0113 87.8782 10.0453 88.4475 9.42C89.0168 8.78533 89.8662 8.468 90.9955 8.468C92.1248 8.468 92.9742 8.78533 93.5435 9.42C94.1128 10.0453 94.3975 11.0113 94.3975 12.318C94.3975 13.6247 94.1128 14.5953 93.5435 15.23C92.9742 15.8553 92.1248 16.168 90.9955 16.168ZM90.9955 15.146C91.7422 15.146 92.2835 14.9313 92.6195 14.502C92.9555 14.0633 93.1235 13.354 93.1235 12.374V12.262C93.1235 11.282 92.9555 10.5773 92.6195 10.148C92.2835 9.70933 91.7422 9.49 90.9955 9.49C90.2488 9.49 89.7075 9.70933 89.3715 10.148C89.0355 10.5773 88.8675 11.282 88.8675 12.262V12.374C88.8675 13.354 89.0355 14.0633 89.3715 14.502C89.7075 14.9313 90.2488 15.146 90.9955 15.146ZM95.8208 8.636H96.7448L96.8988 9.63H96.9828C97.2255 9.24733 97.5428 8.958 97.9348 8.762C98.3361 8.566 98.7795 8.468 99.2648 8.468C100.198 8.468 100.917 8.78067 101.421 9.406C101.925 10.0313 102.177 11.002 102.177 12.318C102.177 13.606 101.925 14.572 101.421 15.216C100.926 15.8507 100.245 16.168 99.3768 16.168C98.8541 16.168 98.4108 16.0887 98.0468 15.93C97.6828 15.7713 97.3795 15.5147 97.1368 15.16H97.0528V18.422H95.8208V8.636ZM98.9568 15.146C99.4328 15.146 99.8108 15.0573 100.091 14.88C100.371 14.7027 100.576 14.4133 100.707 14.012C100.837 13.6107 100.903 13.0647 100.903 12.374V12.318C100.903 11.618 100.837 11.0627 100.707 10.652C100.576 10.2413 100.366 9.94733 100.077 9.77C99.7968 9.58333 99.4235 9.49 98.9568 9.49C98.3035 9.49 97.8228 9.728 97.5148 10.204C97.2068 10.68 97.0528 11.3847 97.0528 12.318V12.374C97.0528 13.2887 97.2021 13.9793 97.5008 14.446C97.8088 14.9127 98.2941 15.146 98.9568 15.146ZM104.3 18.548C103.889 18.548 103.563 18.5107 103.32 18.436V17.638H103.81C104.762 17.638 105.387 17.092 105.686 16L102.844 8.636H104.146L105.518 12.318C105.714 12.8407 105.98 13.6107 106.316 14.628H106.386C106.657 13.676 106.885 12.906 107.072 12.318L108.248 8.636H109.48L107.058 15.622C106.731 16.5553 106.358 17.274 105.938 17.778C105.527 18.2913 104.981 18.548 104.3 18.548ZM110.6 8.636H111.538L111.678 9.742H111.762C111.902 9.378 112.112 9.07467 112.392 8.832C112.672 8.58933 113.041 8.468 113.498 8.468C113.75 8.468 113.969 8.50533 114.156 8.58V9.77H113.638C113.115 9.77 112.681 9.924 112.336 10.232C112 10.5307 111.832 11.002 111.832 11.646V16H110.6V8.636ZM115.262 5.878H116.48V7.208H115.262V5.878ZM115.262 8.636H116.494V16H115.262V8.636ZM119.682 18.548C119.14 18.548 118.669 18.408 118.268 18.128C117.876 17.8573 117.68 17.4047 117.68 16.77C117.68 16.0047 118.076 15.482 118.87 15.202C118.646 15.0807 118.459 14.9267 118.31 14.74C118.17 14.544 118.1 14.32 118.1 14.068C118.1 13.704 118.226 13.4287 118.478 13.242C118.739 13.0553 119.024 12.9247 119.332 12.85C119.024 12.626 118.781 12.3507 118.604 12.024C118.426 11.6973 118.338 11.338 118.338 10.946C118.338 10.162 118.604 9.55533 119.136 9.126C119.668 8.68733 120.396 8.468 121.32 8.468C121.833 8.468 122.3 8.552 122.72 8.72C123.326 8.43067 123.681 8.006 123.784 7.446H124.96C124.96 7.88467 124.829 8.26267 124.568 8.58C124.316 8.89733 123.97 9.10733 123.532 9.21C124.054 9.67667 124.316 10.2553 124.316 10.946C124.316 11.73 124.045 12.3413 123.504 12.78C122.972 13.2093 122.244 13.424 121.32 13.424H120.144C119.892 13.424 119.696 13.48 119.556 13.592C119.425 13.704 119.36 13.8487 119.36 14.026C119.36 14.2033 119.425 14.348 119.556 14.46C119.696 14.572 119.892 14.628 120.144 14.628H123.098C123.676 14.628 124.134 14.8053 124.47 15.16C124.806 15.5053 124.974 15.9253 124.974 16.42C124.974 16.7747 124.894 17.1153 124.736 17.442C124.577 17.7687 124.32 18.0347 123.966 18.24C123.62 18.4453 123.182 18.548 122.65 18.548H119.682ZM121.334 12.472C121.912 12.472 122.351 12.3413 122.65 12.08C122.948 11.8093 123.098 11.4313 123.098 10.946C123.098 10.4607 122.948 10.0873 122.65 9.826C122.351 9.55533 121.912 9.42 121.334 9.42C120.755 9.42 120.316 9.55533 120.018 9.826C119.719 10.0873 119.57 10.4607 119.57 10.946C119.57 11.4313 119.719 11.8093 120.018 12.08C120.316 12.3413 120.755 12.472 121.334 12.472ZM122.678 17.554C122.986 17.554 123.242 17.47 123.448 17.302C123.653 17.134 123.756 16.91 123.756 16.63C123.756 16.35 123.672 16.1307 123.504 15.972C123.345 15.804 123.13 15.72 122.86 15.72H119.794C119.523 15.72 119.308 15.804 119.15 15.972C118.991 16.1307 118.912 16.35 118.912 16.63C118.912 16.91 118.991 17.134 119.15 17.302C119.308 17.47 119.523 17.554 119.794 17.554H122.678ZM126.145 5.878H127.377V9.462H127.475C127.988 8.79933 128.763 8.468 129.799 8.468C131.33 8.468 132.095 9.30333 132.095 10.974V16H130.863V11.058C130.863 10.47 130.732 10.064 130.471 9.84C130.21 9.60667 129.832 9.49 129.337 9.49C128.982 9.49 128.656 9.57867 128.357 9.756C128.058 9.924 127.82 10.1713 127.643 10.498C127.466 10.8247 127.377 11.2073 127.377 11.646V16H126.145V5.878ZM135.59 16.154C135.086 16.154 134.718 16.0047 134.484 15.706C134.251 15.4073 134.134 15.0387 134.134 14.6V9.658H133.238V8.636H134.148L134.414 6.592H135.366V8.636H136.612V9.658H135.366V14.488C135.366 14.9267 135.572 15.146 135.982 15.146H136.612V15.958C136.491 16.014 136.332 16.0607 136.136 16.098C135.94 16.1353 135.758 16.154 135.59 16.154ZM145.931 16.168C145.035 16.168 144.205 15.944 143.439 15.496C142.683 15.048 142.081 14.446 141.633 13.69C141.185 12.9247 140.961 12.094 140.961 11.198C140.961 10.302 141.185 9.476 141.633 8.72C142.081 7.95467 142.683 7.348 143.439 6.9C144.205 6.452 145.035 6.228 145.931 6.228C146.827 6.228 147.653 6.452 148.409 6.9C149.175 7.348 149.781 7.95467 150.229 8.72C150.677 9.476 150.901 10.302 150.901 11.198C150.901 12.094 150.677 12.9247 150.229 13.69C149.781 14.446 149.175 15.048 148.409 15.496C147.653 15.944 146.827 16.168 145.931 16.168ZM145.931 15.51C146.706 15.51 147.42 15.3187 148.073 14.936C148.736 14.544 149.259 14.0213 149.641 13.368C150.024 12.7053 150.215 11.982 150.215 11.198C150.215 10.414 150.024 9.69533 149.641 9.042C149.259 8.37933 148.736 7.85667 148.073 7.474C147.42 7.082 146.706 6.886 145.931 6.886C145.157 6.886 144.438 7.082 143.775 7.474C143.122 7.85667 142.604 8.37933 142.221 9.042C141.839 9.69533 141.647 10.414 141.647 11.198C141.647 11.982 141.839 12.7053 142.221 13.368C142.604 14.0213 143.122 14.544 143.775 14.936C144.438 15.3187 145.157 15.51 145.931 15.51ZM145.931 14.124C145.082 14.124 144.457 13.8907 144.055 13.424C143.654 12.948 143.453 12.206 143.453 11.198C143.453 10.19 143.654 9.448 144.055 8.972C144.457 8.496 145.082 8.258 145.931 8.258C146.697 8.258 147.257 8.44467 147.611 8.818C147.966 9.19133 148.143 9.742 148.143 10.47H147.191C147.191 9.966 147.098 9.602 146.911 9.378C146.734 9.154 146.407 9.042 145.931 9.042C145.409 9.042 145.026 9.21 144.783 9.546C144.541 9.882 144.419 10.4327 144.419 11.198C144.419 11.9633 144.536 12.514 144.769 12.85C145.012 13.186 145.399 13.354 145.931 13.354C146.398 13.354 146.734 13.2373 146.939 13.004C147.145 12.7613 147.247 12.3973 147.247 11.912H148.143C148.143 12.556 147.961 13.088 147.597 13.508C147.233 13.9187 146.678 14.124 145.931 14.124ZM155.544 15.594C155.544 15.09 155.675 14.628 155.936 14.208C156.197 13.7787 156.51 13.4053 156.874 13.088C157.247 12.7613 157.742 12.374 158.358 11.926C158.853 11.562 159.254 11.254 159.562 11.002C159.87 10.7407 160.127 10.4747 160.332 10.204C160.649 9.784 160.808 9.35467 160.808 8.916C160.808 8.47733 160.668 8.09933 160.388 7.782C160.117 7.45533 159.641 7.292 158.96 7.292C158.26 7.292 157.747 7.46467 157.42 7.81C157.093 8.146 156.93 8.58467 156.93 9.126V9.7H155.698C155.67 9.54133 155.656 9.35467 155.656 9.14C155.656 8.16933 155.973 7.44133 156.608 6.956C157.243 6.47067 158.05 6.228 159.03 6.228C159.945 6.228 160.682 6.46133 161.242 6.928C161.802 7.38533 162.082 8.08533 162.082 9.028C162.082 9.532 161.942 10.0033 161.662 10.442C161.382 10.8807 161.041 11.2773 160.64 11.632C160.248 11.9773 159.735 12.3787 159.1 12.836C158.633 13.172 158.265 13.452 157.994 13.676C157.733 13.8907 157.504 14.11 157.308 14.334C157.177 14.474 157.07 14.6373 156.986 14.824H162.138V16H155.544V15.594ZM166.669 16.168C165.923 16.168 165.302 16.0233 164.807 15.734C164.322 15.4353 163.949 14.922 163.687 14.194C163.426 13.466 163.295 12.4673 163.295 11.198C163.295 9.92867 163.426 8.93 163.687 8.202C163.949 7.474 164.322 6.96533 164.807 6.676C165.302 6.37733 165.923 6.228 166.669 6.228C167.407 6.228 168.023 6.37733 168.517 6.676C169.012 6.97467 169.39 7.488 169.651 8.216C169.913 8.93467 170.043 9.92867 170.043 11.198C170.043 12.4673 169.913 13.466 169.651 14.194C169.39 14.9127 169.012 15.4213 168.517 15.72C168.023 16.0187 167.407 16.168 166.669 16.168ZM166.669 15.146C167.22 15.146 167.649 15.0013 167.957 14.712C168.265 14.4227 168.475 14.0027 168.587 13.452C168.709 12.9013 168.769 12.1967 168.769 11.338V11.198C168.769 10.3113 168.709 9.58333 168.587 9.014C168.475 8.44467 168.265 8.01067 167.957 7.712C167.649 7.404 167.22 7.25 166.669 7.25C166.119 7.25 165.689 7.39467 165.381 7.684C165.073 7.97333 164.859 8.39333 164.737 8.944C164.625 9.49467 164.569 10.1993 164.569 11.058V11.198C164.569 12.0847 164.625 12.8127 164.737 13.382C164.859 13.9513 165.073 14.39 165.381 14.698C165.689 14.9967 166.119 15.146 166.669 15.146ZM171.103 15.594C171.103 15.09 171.233 14.628 171.495 14.208C171.756 13.7787 172.069 13.4053 172.433 13.088C172.806 12.7613 173.301 12.374 173.917 11.926C174.411 11.562 174.813 11.254 175.121 11.002C175.429 10.7407 175.685 10.4747 175.891 10.204C176.208 9.784 176.367 9.35467 176.367 8.916C176.367 8.47733 176.227 8.09933 175.947 7.782C175.676 7.45533 175.2 7.292 174.519 7.292C173.819 7.292 173.305 7.46467 172.979 7.81C172.652 8.146 172.489 8.58467 172.489 9.126V9.7H171.257C171.229 9.54133 171.215 9.35467 171.215 9.14C171.215 8.16933 171.532 7.44133 172.167 6.956C172.801 6.47067 173.609 6.228 174.589 6.228C175.503 6.228 176.241 6.46133 176.801 6.928C177.361 7.38533 177.641 8.08533 177.641 9.028C177.641 9.532 177.501 10.0033 177.221 10.442C176.941 10.8807 176.6 11.2773 176.199 11.632C175.807 11.9773 175.293 12.3787 174.659 12.836C174.192 13.172 173.823 13.452 173.553 13.676C173.291 13.8907 173.063 14.11 172.867 14.334C172.736 14.474 172.629 14.6373 172.545 14.824H177.697V16H171.103V15.594ZM179.652 14.978H182.13V8.146H179.638V7.418C180.086 7.37133 180.623 7.25467 181.248 7.068C181.883 6.872 182.429 6.648 182.886 6.396H183.362V14.978H185.658V16H179.652V14.978ZM294.153 14.488H295.553V16H294.153V14.488Z" fill="#333333"/>
<path d="M191.118 6.396H196.116C197.077 6.396 197.814 6.64333 198.328 7.138C198.841 7.63267 199.098 8.29533 199.098 9.126C199.098 9.77933 198.939 10.344 198.622 10.82C198.314 11.296 197.884 11.6367 197.334 11.842L199.546 16H198.062L195.976 12.038H192.448V16H191.118V6.396ZM196.046 10.876C196.568 10.876 196.984 10.722 197.292 10.414C197.6 10.106 197.754 9.68133 197.754 9.14C197.754 8.636 197.609 8.24867 197.32 7.978C197.03 7.698 196.606 7.558 196.046 7.558H192.448V10.876H196.046ZM203.055 16.168C202.421 16.168 201.856 16.0187 201.361 15.72C200.867 15.4213 200.619 14.88 200.619 14.096C200.619 13.1533 201.039 12.5093 201.879 12.164C202.719 11.8093 203.933 11.632 205.519 11.632V10.82C205.519 10.3907 205.398 10.064 205.155 9.84C204.913 9.60667 204.474 9.49 203.839 9.49C203.242 9.49 202.813 9.602 202.551 9.826C202.299 10.05 202.173 10.3253 202.173 10.652V10.82H200.983C200.974 10.764 200.969 10.6613 200.969 10.512C200.969 9.85867 201.24 9.35467 201.781 9C202.323 8.64533 203.046 8.468 203.951 8.468C204.866 8.468 205.561 8.65933 206.037 9.042C206.513 9.42467 206.751 9.966 206.751 10.666V14.656C206.751 14.824 206.798 14.95 206.891 15.034C206.985 15.1087 207.101 15.146 207.241 15.146H207.801V15.944C207.559 16.056 207.241 16.112 206.849 16.112C206.532 16.112 206.266 16.0187 206.051 15.832C205.837 15.636 205.692 15.3793 205.617 15.062H205.519C205.267 15.4073 204.922 15.678 204.483 15.874C204.054 16.07 203.578 16.168 203.055 16.168ZM203.377 15.146C203.741 15.146 204.087 15.0713 204.413 14.922C204.74 14.7727 205.006 14.5533 205.211 14.264C205.417 13.9653 205.519 13.606 205.519 13.186V12.654C204.315 12.654 203.41 12.752 202.803 12.948C202.206 13.1347 201.907 13.494 201.907 14.026C201.907 14.4273 202.029 14.7167 202.271 14.894C202.523 15.062 202.892 15.146 203.377 15.146ZM209.099 9.658H208.021V8.636H209.099V7.46C209.099 6.97467 209.22 6.57333 209.463 6.256C209.705 5.92933 210.116 5.766 210.695 5.766C210.881 5.766 211.068 5.78467 211.255 5.822C211.451 5.85 211.614 5.88733 211.745 5.934V6.788H211.017C210.559 6.788 210.331 7.012 210.331 7.46V8.636H211.745V9.658H210.331V16H209.099V9.658ZM214.731 16.168C214.096 16.168 213.532 16.0187 213.037 15.72C212.542 15.4213 212.295 14.88 212.295 14.096C212.295 13.1533 212.715 12.5093 213.555 12.164C214.395 11.8093 215.608 11.632 217.195 11.632V10.82C217.195 10.3907 217.074 10.064 216.831 9.84C216.588 9.60667 216.15 9.49 215.515 9.49C214.918 9.49 214.488 9.602 214.227 9.826C213.975 10.05 213.849 10.3253 213.849 10.652V10.82H212.659C212.65 10.764 212.645 10.6613 212.645 10.512C212.645 9.85867 212.916 9.35467 213.457 9C213.998 8.64533 214.722 8.468 215.627 8.468C216.542 8.468 217.237 8.65933 217.713 9.042C218.189 9.42467 218.427 9.966 218.427 10.666V14.656C218.427 14.824 218.474 14.95 218.567 15.034C218.66 15.1087 218.777 15.146 218.917 15.146H219.477V15.944C219.234 16.056 218.917 16.112 218.525 16.112C218.208 16.112 217.942 16.0187 217.727 15.832C217.512 15.636 217.368 15.3793 217.293 15.062H217.195C216.943 15.4073 216.598 15.678 216.159 15.874C215.73 16.07 215.254 16.168 214.731 16.168ZM215.053 15.146C215.417 15.146 215.762 15.0713 216.089 14.922C216.416 14.7727 216.682 14.5533 216.887 14.264C217.092 13.9653 217.195 13.606 217.195 13.186V12.654C215.991 12.654 215.086 12.752 214.479 12.948C213.882 13.1347 213.583 13.494 213.583 14.026C213.583 14.4273 213.704 14.7167 213.947 14.894C214.199 15.062 214.568 15.146 215.053 15.146ZM223.63 16.168C222.445 16.168 221.563 15.8553 220.984 15.23C220.406 14.6047 220.116 13.634 220.116 12.318C220.116 11.002 220.406 10.0313 220.984 9.406C221.563 8.78067 222.445 8.468 223.63 8.468C224.694 8.468 225.488 8.75267 226.01 9.322C226.542 9.882 226.808 10.7873 226.808 12.038V12.654H221.39C221.437 13.5033 221.638 14.1333 221.992 14.544C222.356 14.9453 222.902 15.146 223.63 15.146C224.218 15.146 224.694 15.0107 225.058 14.74C225.422 14.4693 225.604 14.054 225.604 13.494H226.808C226.808 14.3527 226.51 15.0153 225.912 15.482C225.324 15.9393 224.564 16.168 223.63 16.168ZM225.52 11.632C225.52 10.204 224.89 9.49 223.63 9.49C222.93 9.49 222.403 9.658 222.048 9.994C221.703 10.33 221.493 10.876 221.418 11.632H225.52ZM228.288 5.878H229.52V16H228.288V5.878ZM235.456 6.396H242.26V7.558H236.786V10.61H241.756V11.772H236.786V16H235.456V6.396ZM245.288 16.168C244.653 16.168 244.088 16.0187 243.594 15.72C243.099 15.4213 242.852 14.88 242.852 14.096C242.852 13.1533 243.272 12.5093 244.112 12.164C244.952 11.8093 246.165 11.632 247.752 11.632V10.82C247.752 10.3907 247.63 10.064 247.388 9.84C247.145 9.60667 246.706 9.49 246.072 9.49C245.474 9.49 245.045 9.602 244.784 9.826C244.532 10.05 244.406 10.3253 244.406 10.652V10.82H243.216C243.206 10.764 243.202 10.6613 243.202 10.512C243.202 9.85867 243.472 9.35467 244.014 9C244.555 8.64533 245.278 8.468 246.184 8.468C247.098 8.468 247.794 8.65933 248.27 9.042C248.746 9.42467 248.984 9.966 248.984 10.666V14.656C248.984 14.824 249.03 14.95 249.124 15.034C249.217 15.1087 249.334 15.146 249.474 15.146H250.034V15.944C249.791 16.056 249.474 16.112 249.082 16.112C248.764 16.112 248.498 16.0187 248.284 15.832C248.069 15.636 247.924 15.3793 247.85 15.062H247.752C247.5 15.4073 247.154 15.678 246.716 15.874C246.286 16.07 245.81 16.168 245.288 16.168ZM245.61 15.146C245.974 15.146 246.319 15.0713 246.646 14.922C246.972 14.7727 247.238 14.5533 247.444 14.264C247.649 13.9653 247.752 13.606 247.752 13.186V12.654C246.548 12.654 245.642 12.752 245.036 12.948C244.438 13.1347 244.14 13.494 244.14 14.026C244.14 14.4273 244.261 14.7167 244.504 14.894C244.756 15.062 245.124 15.146 245.61 15.146ZM253.865 16.168C252.745 16.168 251.924 15.86 251.401 15.244C250.878 14.6187 250.617 13.6433 250.617 12.318C250.617 11.002 250.878 10.0313 251.401 9.406C251.933 8.78067 252.754 8.468 253.865 8.468C254.873 8.468 255.61 8.71067 256.077 9.196C256.544 9.68133 256.777 10.4047 256.777 11.366H255.517C255.517 10.7033 255.396 10.2273 255.153 9.938C254.92 9.63933 254.49 9.49 253.865 9.49C253.184 9.49 252.684 9.714 252.367 10.162C252.05 10.6007 251.891 11.3193 251.891 12.318V12.374C251.891 13.3633 252.045 14.0727 252.353 14.502C252.661 14.9313 253.165 15.146 253.865 15.146C254.481 15.146 254.92 14.992 255.181 14.684C255.452 14.3667 255.587 13.8953 255.587 13.27H256.777C256.777 14.11 256.539 14.8053 256.063 15.356C255.587 15.8973 254.854 16.168 253.865 16.168ZM258.065 5.878H259.297V9.462H259.395C259.908 8.79933 260.683 8.468 261.719 8.468C263.25 8.468 264.015 9.30333 264.015 10.974V16H262.783V11.058C262.783 10.47 262.652 10.064 262.391 9.84C262.13 9.60667 261.752 9.49 261.257 9.49C260.902 9.49 260.576 9.57867 260.277 9.756C259.978 9.924 259.74 10.1713 259.563 10.498C259.386 10.8247 259.297 11.2073 259.297 11.646V16H258.065V5.878ZM265.844 5.878H267.062V7.208H265.844V5.878ZM265.844 8.636H267.076V16H265.844V8.636ZM268.948 8.636H269.886L270.026 9.63H270.124C270.665 8.85533 271.491 8.468 272.602 8.468C273.339 8.468 273.904 8.66867 274.296 9.07C274.697 9.462 274.898 10.0967 274.898 10.974V16H273.666V11.058C273.666 10.47 273.535 10.064 273.274 9.84C273.012 9.60667 272.634 9.49 272.14 9.49C271.785 9.49 271.458 9.57867 271.16 9.756C270.861 9.924 270.623 10.1713 270.446 10.498C270.268 10.8247 270.18 11.2073 270.18 11.646V16H268.948V8.636ZM279.849 16.168C278.664 16.168 277.782 15.8553 277.203 15.23C276.624 14.6047 276.335 13.634 276.335 12.318C276.335 11.002 276.624 10.0313 277.203 9.406C277.782 8.78067 278.664 8.468 279.849 8.468C280.913 8.468 281.706 8.75267 282.229 9.322C282.761 9.882 283.027 10.7873 283.027 12.038V12.654H277.609C277.656 13.5033 277.856 14.1333 278.211 14.544C278.575 14.9453 279.121 15.146 279.849 15.146C280.437 15.146 280.913 15.0107 281.277 14.74C281.641 14.4693 281.823 14.054 281.823 13.494H283.027C283.027 14.3527 282.728 15.0153 282.131 15.482C281.543 15.9393 280.782 16.168 279.849 16.168ZM281.739 11.632C281.739 10.204 281.109 9.49 279.849 9.49C279.149 9.49 278.622 9.658 278.267 9.994C277.922 10.33 277.712 10.876 277.637 11.632H281.739ZM284.506 5.878H285.738V16H284.506V5.878ZM287.61 5.878H288.842V16H287.61V5.878ZM290.713 5.878H291.931V7.208H290.713V5.878ZM290.713 8.636H291.945V16H290.713V8.636Z" fill="#2F80ED"/>
<path d="M94.612 26.558H91.308V25.396H99.246V26.558H95.942V35H94.612V26.558ZM100.497 24.878H101.729V28.462H101.827C102.34 27.7993 103.115 27.468 104.151 27.468C105.681 27.468 106.447 28.3033 106.447 29.974V35H105.215V30.058C105.215 29.47 105.084 29.064 104.823 28.84C104.561 28.6067 104.183 28.49 103.689 28.49C103.334 28.49 103.007 28.5787 102.709 28.756C102.41 28.924 102.172 29.1713 101.995 29.498C101.817 29.8247 101.729 30.2073 101.729 30.646V35H100.497V24.878ZM108.276 24.878H109.494V26.208H108.276V24.878ZM108.276 27.636H109.508V35H108.276V27.636ZM113.899 35.168C113.218 35.168 112.649 35.07 112.191 34.874C111.743 34.6687 111.412 34.4027 111.197 34.076C110.983 33.7493 110.875 33.3947 110.875 33.012C110.875 32.9 110.875 32.8253 110.875 32.788C110.885 32.7413 110.889 32.7133 110.889 32.704H112.107V32.844C112.107 33.2827 112.28 33.614 112.625 33.838C112.971 34.0527 113.419 34.16 113.969 34.16C114.445 34.16 114.837 34.0667 115.145 33.88C115.463 33.684 115.621 33.4133 115.621 33.068C115.621 32.7973 115.533 32.578 115.355 32.41C115.178 32.2327 114.959 32.0973 114.697 32.004C114.436 31.9013 114.081 31.794 113.633 31.682C113.092 31.542 112.649 31.402 112.303 31.262C111.967 31.122 111.678 30.9167 111.435 30.646C111.202 30.366 111.085 30.0067 111.085 29.568C111.085 28.924 111.347 28.4153 111.869 28.042C112.401 27.6593 113.115 27.468 114.011 27.468C114.571 27.468 115.057 27.5613 115.467 27.748C115.878 27.9253 116.186 28.168 116.391 28.476C116.606 28.7747 116.713 29.1107 116.713 29.484L116.699 29.75H115.495V29.624C115.495 29.2973 115.365 29.0267 115.103 28.812C114.851 28.5973 114.441 28.49 113.871 28.49C113.311 28.49 112.919 28.5927 112.695 28.798C112.471 28.994 112.359 29.2227 112.359 29.484C112.359 29.6987 112.439 29.876 112.597 30.016C112.756 30.156 112.952 30.268 113.185 30.352C113.419 30.436 113.745 30.5293 114.165 30.632C114.744 30.7813 115.215 30.9307 115.579 31.08C115.943 31.22 116.251 31.4393 116.503 31.738C116.765 32.0273 116.895 32.4147 116.895 32.9C116.895 33.656 116.62 34.2253 116.069 34.608C115.528 34.9813 114.805 35.168 113.899 35.168ZM122.276 27.636H123.2L123.354 28.63H123.438C123.681 28.2473 123.998 27.958 124.39 27.762C124.791 27.566 125.235 27.468 125.72 27.468C126.653 27.468 127.372 27.7807 127.876 28.406C128.38 29.0313 128.632 30.002 128.632 31.318C128.632 32.606 128.38 33.572 127.876 34.216C127.381 34.8507 126.7 35.168 125.832 35.168C125.309 35.168 124.866 35.0887 124.502 34.93C124.138 34.7713 123.835 34.5147 123.592 34.16H123.508V37.422H122.276V27.636ZM125.412 34.146C125.888 34.146 126.266 34.0573 126.546 33.88C126.826 33.7027 127.031 33.4133 127.162 33.012C127.293 32.6107 127.358 32.0647 127.358 31.374V31.318C127.358 30.618 127.293 30.0627 127.162 29.652C127.031 29.2413 126.821 28.9473 126.532 28.77C126.252 28.5833 125.879 28.49 125.412 28.49C124.759 28.49 124.278 28.728 123.97 29.204C123.662 29.68 123.508 30.3847 123.508 31.318V31.374C123.508 32.2887 123.657 32.9793 123.956 33.446C124.264 33.9127 124.749 34.146 125.412 34.146ZM130.055 27.636H130.993L131.133 28.742H131.217C131.357 28.378 131.567 28.0747 131.847 27.832C132.127 27.5893 132.496 27.468 132.953 27.468C133.205 27.468 133.425 27.5053 133.611 27.58V28.77H133.093C132.571 28.77 132.137 28.924 131.791 29.232C131.455 29.5307 131.287 30.002 131.287 30.646V35H130.055V27.636ZM137.671 35.168C136.542 35.168 135.693 34.8553 135.123 34.23C134.554 33.5953 134.269 32.6247 134.269 31.318C134.269 30.0113 134.554 29.0453 135.123 28.42C135.693 27.7853 136.542 27.468 137.671 27.468C138.801 27.468 139.65 27.7853 140.219 28.42C140.789 29.0453 141.073 30.0113 141.073 31.318C141.073 32.6247 140.789 33.5953 140.219 34.23C139.65 34.8553 138.801 35.168 137.671 35.168ZM137.671 34.146C138.418 34.146 138.959 33.9313 139.295 33.502C139.631 33.0633 139.799 32.354 139.799 31.374V31.262C139.799 30.282 139.631 29.5773 139.295 29.148C138.959 28.7093 138.418 28.49 137.671 28.49C136.925 28.49 136.383 28.7093 136.047 29.148C135.711 29.5773 135.543 30.282 135.543 31.262V31.374C135.543 32.354 135.711 33.0633 136.047 33.502C136.383 33.9313 136.925 34.146 137.671 34.146ZM142.497 24.878H143.729V26.25H142.497V24.878ZM142.189 37.548C141.862 37.548 141.54 37.492 141.223 37.38V36.582H141.839C142.277 36.582 142.497 36.358 142.497 35.91V27.636H143.729V35.854C143.729 36.3393 143.607 36.7407 143.365 37.058C143.131 37.3847 142.739 37.548 142.189 37.548ZM148.722 35.168C147.537 35.168 146.655 34.8553 146.076 34.23C145.497 33.6047 145.208 32.634 145.208 31.318C145.208 30.002 145.497 29.0313 146.076 28.406C146.655 27.7807 147.537 27.468 148.722 27.468C149.786 27.468 150.579 27.7527 151.102 28.322C151.634 28.882 151.9 29.7873 151.9 31.038V31.654H146.482C146.529 32.5033 146.729 33.1333 147.084 33.544C147.448 33.9453 147.994 34.146 148.722 34.146C149.31 34.146 149.786 34.0107 150.15 33.74C150.514 33.4693 150.696 33.054 150.696 32.494H151.9C151.9 33.3527 151.601 34.0153 151.004 34.482C150.416 34.9393 149.655 35.168 148.722 35.168ZM150.612 30.632C150.612 29.204 149.982 28.49 148.722 28.49C148.022 28.49 147.495 28.658 147.14 28.994C146.795 29.33 146.585 29.876 146.51 30.632H150.612ZM156.179 35.168C155.059 35.168 154.238 34.86 153.715 34.244C153.193 33.6187 152.931 32.6433 152.931 31.318C152.931 30.002 153.193 29.0313 153.715 28.406C154.247 27.7807 155.069 27.468 156.179 27.468C157.187 27.468 157.925 27.7107 158.391 28.196C158.858 28.6813 159.091 29.4047 159.091 30.366H157.831C157.831 29.7033 157.71 29.2273 157.467 28.938C157.234 28.6393 156.805 28.49 156.179 28.49C155.498 28.49 154.999 28.714 154.681 29.162C154.364 29.6007 154.205 30.3193 154.205 31.318V31.374C154.205 32.3633 154.359 33.0727 154.667 33.502C154.975 33.9313 155.479 34.146 156.179 34.146C156.795 34.146 157.234 33.992 157.495 33.684C157.766 33.3667 157.901 32.8953 157.901 32.27H159.091C159.091 33.11 158.853 33.8053 158.377 34.356C157.901 34.8973 157.169 35.168 156.179 35.168ZM162.045 35.154C161.541 35.154 161.173 35.0047 160.939 34.706C160.706 34.4073 160.589 34.0387 160.589 33.6V28.658H159.693V27.636H160.603L160.869 25.592H161.821V27.636H163.067V28.658H161.821V33.488C161.821 33.9267 162.027 34.146 162.437 34.146H163.067V34.958C162.946 35.014 162.787 35.0607 162.591 35.098C162.395 35.1353 162.213 35.154 162.045 35.154ZM168.172 24.878H169.39V26.208H168.172V24.878ZM168.172 27.636H169.404V35H168.172V27.636ZM173.796 35.168C173.115 35.168 172.545 35.07 172.088 34.874C171.64 34.6687 171.309 34.4027 171.094 34.076C170.879 33.7493 170.772 33.3947 170.772 33.012C170.772 32.9 170.772 32.8253 170.772 32.788C170.781 32.7413 170.786 32.7133 170.786 32.704H172.004V32.844C172.004 33.2827 172.177 33.614 172.522 33.838C172.867 34.0527 173.315 34.16 173.866 34.16C174.342 34.16 174.734 34.0667 175.042 33.88C175.359 33.684 175.518 33.4133 175.518 33.068C175.518 32.7973 175.429 32.578 175.252 32.41C175.075 32.2327 174.855 32.0973 174.594 32.004C174.333 31.9013 173.978 31.794 173.53 31.682C172.989 31.542 172.545 31.402 172.2 31.262C171.864 31.122 171.575 30.9167 171.332 30.646C171.099 30.366 170.982 30.0067 170.982 29.568C170.982 28.924 171.243 28.4153 171.766 28.042C172.298 27.6593 173.012 27.468 173.908 27.468C174.468 27.468 174.953 27.5613 175.364 27.748C175.775 27.9253 176.083 28.168 176.288 28.476C176.503 28.7747 176.61 29.1107 176.61 29.484L176.596 29.75H175.392V29.624C175.392 29.2973 175.261 29.0267 175 28.812C174.748 28.5973 174.337 28.49 173.768 28.49C173.208 28.49 172.816 28.5927 172.592 28.798C172.368 28.994 172.256 29.2227 172.256 29.484C172.256 29.6987 172.335 29.876 172.494 30.016C172.653 30.156 172.849 30.268 173.082 30.352C173.315 30.436 173.642 30.5293 174.062 30.632C174.641 30.7813 175.112 30.9307 175.476 31.08C175.84 31.22 176.148 31.4393 176.4 31.738C176.661 32.0273 176.792 32.4147 176.792 32.9C176.792 33.656 176.517 34.2253 175.966 34.608C175.425 34.9813 174.701 35.168 173.796 35.168ZM182.172 24.878H183.404V35H182.172V24.878ZM185.276 24.878H186.494V26.208H185.276V24.878ZM185.276 27.636H186.508V35H185.276V27.636ZM191.179 35.168C190.059 35.168 189.238 34.86 188.715 34.244C188.193 33.6187 187.931 32.6433 187.931 31.318C187.931 30.002 188.193 29.0313 188.715 28.406C189.247 27.7807 190.069 27.468 191.179 27.468C192.187 27.468 192.925 27.7107 193.391 28.196C193.858 28.6813 194.091 29.4047 194.091 30.366H192.831C192.831 29.7033 192.71 29.2273 192.467 28.938C192.234 28.6393 191.805 28.49 191.179 28.49C190.498 28.49 189.999 28.714 189.681 29.162C189.364 29.6007 189.205 30.3193 189.205 31.318V31.374C189.205 32.3633 189.359 33.0727 189.667 33.502C189.975 33.9313 190.479 34.146 191.179 34.146C191.795 34.146 192.234 33.992 192.495 33.684C192.766 33.3667 192.901 32.8953 192.901 32.27H194.091C194.091 33.11 193.853 33.8053 193.377 34.356C192.901 34.8973 192.169 35.168 191.179 35.168ZM198.501 35.168C197.316 35.168 196.434 34.8553 195.855 34.23C195.277 33.6047 194.987 32.634 194.987 31.318C194.987 30.002 195.277 29.0313 195.855 28.406C196.434 27.7807 197.316 27.468 198.501 27.468C199.565 27.468 200.359 27.7527 200.881 28.322C201.413 28.882 201.679 29.7873 201.679 31.038V31.654H196.261C196.308 32.5033 196.509 33.1333 196.863 33.544C197.227 33.9453 197.773 34.146 198.501 34.146C199.089 34.146 199.565 34.0107 199.929 33.74C200.293 33.4693 200.475 33.054 200.475 32.494H201.679C201.679 33.3527 201.381 34.0153 200.783 34.482C200.195 34.9393 199.435 35.168 198.501 35.168ZM200.391 30.632C200.391 29.204 199.761 28.49 198.501 28.49C197.801 28.49 197.274 28.658 196.919 28.994C196.574 29.33 196.364 29.876 196.289 30.632H200.391ZM203.159 27.636H204.097L204.237 28.63H204.335C204.876 27.8553 205.702 27.468 206.813 27.468C207.55 27.468 208.115 27.6687 208.507 28.07C208.908 28.462 209.109 29.0967 209.109 29.974V35H207.877V30.058C207.877 29.47 207.746 29.064 207.485 28.84C207.223 28.6067 206.845 28.49 206.351 28.49C205.996 28.49 205.669 28.5787 205.371 28.756C205.072 28.924 204.834 29.1713 204.657 29.498C204.479 29.8247 204.391 30.2073 204.391 30.646V35H203.159V27.636ZM213.458 35.168C212.777 35.168 212.207 35.07 211.75 34.874C211.302 34.6687 210.971 34.4027 210.756 34.076C210.541 33.7493 210.434 33.3947 210.434 33.012C210.434 32.9 210.434 32.8253 210.434 32.788C210.443 32.7413 210.448 32.7133 210.448 32.704H211.666V32.844C211.666 33.2827 211.839 33.614 212.184 33.838C212.529 34.0527 212.977 34.16 213.528 34.16C214.004 34.16 214.396 34.0667 214.704 33.88C215.021 33.684 215.18 33.4133 215.18 33.068C215.18 32.7973 215.091 32.578 214.914 32.41C214.737 32.2327 214.517 32.0973 214.256 32.004C213.995 31.9013 213.64 31.794 213.192 31.682C212.651 31.542 212.207 31.402 211.862 31.262C211.526 31.122 211.237 30.9167 210.994 30.646C210.761 30.366 210.644 30.0067 210.644 29.568C210.644 28.924 210.905 28.4153 211.428 28.042C211.96 27.6593 212.674 27.468 213.57 27.468C214.13 27.468 214.615 27.5613 215.026 27.748C215.437 27.9253 215.745 28.168 215.95 28.476C216.165 28.7747 216.272 29.1107 216.272 29.484L216.258 29.75H215.054V29.624C215.054 29.2973 214.923 29.0267 214.662 28.812C214.41 28.5973 213.999 28.49 213.43 28.49C212.87 28.49 212.478 28.5927 212.254 28.798C212.03 28.994 211.918 29.2227 211.918 29.484C211.918 29.6987 211.997 29.876 212.156 30.016C212.315 30.156 212.511 30.268 212.744 30.352C212.977 30.436 213.304 30.5293 213.724 30.632C214.303 30.7813 214.774 30.9307 215.138 31.08C215.502 31.22 215.81 31.4393 216.062 31.738C216.323 32.0273 216.454 32.4147 216.454 32.9C216.454 33.656 216.179 34.2253 215.628 34.608C215.087 34.9813 214.363 35.168 213.458 35.168ZM221.06 35.168C219.875 35.168 218.993 34.8553 218.414 34.23C217.835 33.6047 217.546 32.634 217.546 31.318C217.546 30.002 217.835 29.0313 218.414 28.406C218.993 27.7807 219.875 27.468 221.06 27.468C222.124 27.468 222.917 27.7527 223.44 28.322C223.972 28.882 224.238 29.7873 224.238 31.038V31.654H218.82C218.867 32.5033 219.067 33.1333 219.422 33.544C219.786 33.9453 220.332 34.146 221.06 34.146C221.648 34.146 222.124 34.0107 222.488 33.74C222.852 33.4693 223.034 33.054 223.034 32.494H224.238C224.238 33.3527 223.939 34.0153 223.342 34.482C222.754 34.9393 221.993 35.168 221.06 35.168ZM222.95 30.632C222.95 29.204 222.32 28.49 221.06 28.49C220.36 28.49 219.833 28.658 219.478 28.994C219.133 29.33 218.923 29.876 218.848 30.632H222.95ZM228.181 35.168C227.248 35.168 226.529 34.8553 226.025 34.23C225.521 33.6047 225.269 32.634 225.269 31.318C225.269 30.03 225.517 29.0687 226.011 28.434C226.515 27.79 227.201 27.468 228.069 27.468C228.592 27.468 229.035 27.5473 229.399 27.706C229.763 27.8647 230.067 28.1213 230.309 28.476H230.393V24.878H231.625V35H230.701L230.547 34.006H230.463C230.221 34.3887 229.899 34.678 229.497 34.874C229.105 35.07 228.667 35.168 228.181 35.168ZM228.489 34.146C229.152 34.146 229.633 33.9127 229.931 33.446C230.239 32.9793 230.393 32.2887 230.393 31.374V31.318C230.393 30.3847 230.239 29.68 229.931 29.204C229.623 28.728 229.143 28.49 228.489 28.49C228.023 28.49 227.645 28.5833 227.355 28.77C227.075 28.9473 226.87 29.2413 226.739 29.652C226.609 30.0627 226.543 30.618 226.543 31.318V31.374C226.543 32.0647 226.609 32.6107 226.739 33.012C226.87 33.4133 227.075 33.7027 227.355 33.88C227.635 34.0573 228.013 34.146 228.489 34.146ZM240.837 35.168C240.352 35.168 239.908 35.07 239.507 34.874C239.115 34.678 238.798 34.3887 238.555 34.006H238.471L238.317 35H237.393V24.878H238.625V28.476H238.709C238.952 28.1213 239.255 27.8647 239.619 27.706C239.983 27.5473 240.426 27.468 240.949 27.468C241.817 27.468 242.498 27.79 242.993 28.434C243.497 29.0687 243.749 30.03 243.749 31.318C243.749 32.634 243.497 33.6047 242.993 34.23C242.489 34.8553 241.77 35.168 240.837 35.168ZM240.529 34.146C241.005 34.146 241.383 34.0573 241.663 33.88C241.943 33.7027 242.148 33.4133 242.279 33.012C242.41 32.6107 242.475 32.0647 242.475 31.374V31.318C242.475 30.618 242.41 30.0627 242.279 29.652C242.148 29.2413 241.938 28.9473 241.649 28.77C241.369 28.5833 240.996 28.49 240.529 28.49C239.876 28.49 239.395 28.728 239.087 29.204C238.779 29.68 238.625 30.3847 238.625 31.318V31.374C238.625 32.2887 238.774 32.9793 239.073 33.446C239.381 33.9127 239.866 34.146 240.529 34.146ZM245.872 37.548C245.462 37.548 245.135 37.5107 244.892 37.436V36.638H245.382C246.334 36.638 246.96 36.092 247.258 35L244.416 27.636H245.718L247.09 31.318C247.286 31.8407 247.552 32.6107 247.888 33.628H247.958C248.229 32.676 248.458 31.906 248.644 31.318L249.82 27.636H251.052L248.63 34.622C248.304 35.5553 247.93 36.274 247.51 36.778C247.1 37.2913 246.554 37.548 245.872 37.548ZM280.522 33.488H281.922V35H280.522V33.488Z" fill="#333333"/>
<path d="M256.237 25.396H258.211L260.507 31.948C260.638 32.3213 260.782 32.802 260.941 33.39H260.997C261.165 32.7367 261.305 32.256 261.417 31.948L263.727 25.396H265.687V35H264.357V28.658L264.385 26.866H264.287C264.212 27.2487 264.133 27.5567 264.049 27.79L261.445 35H260.339L257.777 27.79C257.702 27.594 257.623 27.286 257.539 26.866H257.455L257.483 28.658V35H256.237V25.396ZM268.081 25.396H269.411V35H268.081V25.396ZM274.301 26.558H270.997V25.396H278.935V26.558H275.631V35H274.301V26.558Z" fill="#2F80ED"/>
<path d="M33.7012 12.6361L30.0578 6H54L50.0964 12.6361H33.7012Z" fill="#2F80ED"/>
<path d="M48.3398 15.8892H33.7012L29.2771 24.1518L33.1807 30.6578L37.9301 22.1349H44.3711L48.3398 15.8892Z" fill="#2F80ED"/>
<path d="M27.1952 40.8723L31.0988 34.041L24.2024 22.1349H25.894L30.6434 14.0024L25.894 6H0L4.0988 12.5711H20.1036L21.4699 14.0024L20.1036 15.5639H6.11566L10.0843 22.1349H16.5253L27.1952 40.8723Z" fill="#2F80ED"/>
</svg>
